<svg width="600" height="600" viewBox="0 0 600 600" xmlns="http://www.w3.org/2000/svg">
  <defs>
    <!-- 彩虹渐变 -->
    <linearGradient id="rainbow" x1="0%" y1="0%" x2="100%" y2="100%">
      <stop offset="0%" style="stop-color:#FF6B6B"/>
      <stop offset="16%" style="stop-color:#FFE66D"/>
      <stop offset="33%" style="stop-color:#4ECDC4"/>
      <stop offset="50%" style="stop-color:#45B7D1"/>
      <stop offset="66%" style="stop-color:#96CEB4"/>
      <stop offset="83%" style="stop-color:#FFEAA7"/>
      <stop offset="100%" style="stop-color:#DDA0DD"/>
    </linearGradient>
    
    <!-- 无限符号渐变 -->
    <linearGradient id="infinity" x1="0%" y1="0%" x2="100%" y2="0%">
      <stop offset="0%" style="stop-color:#667eea"/>
      <stop offset="100%" style="stop-color:#764ba2"/>
    </linearGradient>
    
    <!-- 流动效果 -->
    <filter id="flow">
      <feGaussianBlur stdDeviation="4" result="coloredBlur"/>
      <feMerge> 
        <feMergeNode in="coloredBlur"/>
        <feMergeNode in="SourceGraphic"/>
      </feMerge>
    </filter>
    
    <!-- 动画路径 -->
    <path id="infinityPath" d="M 200,300 Q 250,200 300,300 Q 350,400 400,300 Q 350,200 300,300 Q 250,400 200,300"/>
  </defs>
  
  <!-- 渐变背景 -->
  <rect width="600" height="600" fill="url(#rainbow)" opacity="0.1"/>
  <circle cx="300" cy="300" r="280" fill="url(#infinity)" opacity="0.05"/>
  
  <!-- 无限符号主体 -->
  <path d="M 150,300 Q 200,200 250,250 Q 300,300 350,250 Q 400,200 450,300 Q 400,400 350,350 Q 300,300 250,350 Q 200,400 150,300 Z" 
        fill="none" stroke="url(#infinity)" stroke-width="20" filter="url(#flow)"/>
  
  <!-- 流动的水果 -->
  <g>
    <!-- 樱桃 -->
    <circle cx="180" cy="280" r="12" fill="#FF6B6B">
      <animateMotion dur="4s" repeatCount="indefinite">
        <mpath href="#infinityPath"/>
      </animateMotion>
    </circle>
    
    <!-- 橙子 -->
    <circle cx="220" cy="320" r="14" fill="#FFE66D">
      <animateMotion dur="4s" repeatCount="indefinite" begin="0.5s">
        <mpath href="#infinityPath"/>
      </animateMotion>
    </circle>
    
    <!-- 苹果 -->
    <circle cx="260" cy="280" r="13" fill="#4ECDC4">
      <animateMotion dur="4s" repeatCount="indefinite" begin="1s">
        <mpath href="#infinityPath"/>
      </animateMotion>
    </circle>
    
    <!-- 葡萄 -->
    <circle cx="300" cy="320" r="11" fill="#45B7D1">
      <animateMotion dur="4s" repeatCount="indefinite" begin="1.5s">
        <mpath href="#infinityPath"/>
      </animateMotion>
    </circle>
    
    <!-- 西瓜 -->
    <circle cx="340" cy="280" r="15" fill="#96CEB4">
      <animateMotion dur="4s" repeatCount="indefinite" begin="2s">
        <mpath href="#infinityPath"/>
      </animateMotion>
    </circle>
  </g>
  
  <!-- 中心合成区域 -->
  <circle cx="300" cy="300" r="40" fill="#FFFFFF" opacity="0.9" filter="url(#flow)"/>
  <circle cx="300" cy="300" r="30" fill="url(#rainbow)" opacity="0.8"/>
  <text x="300" y="310" text-anchor="middle" font-family="Arial Black" font-size="24" fill="#FFFFFF" font-weight="bold">∞</text>
  
  <!-- 装饰性水果图标 -->
  <g transform="translate(150,150)">
    <circle cx="0" cy="0" r="20" fill="#FF6B6B" opacity="0.6"/>
    <text x="0" y="6" text-anchor="middle" font-family="Arial" font-size="16" fill="#FFFFFF">🍒</text>
  </g>
  
  <g transform="translate(450,150)">
    <circle cx="0" cy="0" r="22" fill="#FFE66D" opacity="0.6"/>
    <text x="0" y="6" text-anchor="middle" font-family="Arial" font-size="18" fill="#FFFFFF">🍊</text>
  </g>
  
  <g transform="translate(150,450)">
    <circle cx="0" cy="0" r="24" fill="#96CEB4" opacity="0.6"/>
    <text x="0" y="8" text-anchor="middle" font-family="Arial" font-size="20" fill="#FFFFFF">🍉</text>
  </g>
  
  <g transform="translate(450,450)">
    <circle cx="0" cy="0" r="21" fill="#DDA0DD" opacity="0.6"/>
    <text x="0" y="6" text-anchor="middle" font-family="Arial" font-size="17" fill="#FFFFFF">🍇</text>
  </g>
  
  <!-- 流动粒子效果 -->
  <circle cx="200" cy="250" r="2" fill="#FFD700" filter="url(#flow)"/>
  <circle cx="400" cy="350" r="2" fill="#FF69B4" filter="url(#flow)"/>
  <circle cx="350" cy="200" r="2" fill="#00CED1" filter="url(#flow)"/>
  <circle cx="250" cy="400" r="2" fill="#98FB98" filter="url(#flow)"/>
  
  <!-- 标题 -->
  <text x="300" y="520" text-anchor="middle" font-family="Arial Black" font-size="38" fill="url(#infinity)" font-weight="bold">合成新水果</text>
  <text x="300" y="550" text-anchor="middle" font-family="Arial" font-size="16" fill="#667eea" opacity="0.8">ENDLESS FRUIT FUSION</text>
  
  <!-- 装饰边框 -->
  <rect x="30" y="30" width="540" height="540" rx="30" fill="none" stroke="url(#rainbow)" stroke-width="3" opacity="0.5"/>
</svg>