<svg width="52" height="52" viewBox="0 0 52 52" xmlns="http://www.w3.org/2000/svg">
  <defs>
    <radialGradient id="appleGradient" cx="0.3" cy="0.4" r="0.8">
      <stop offset="0%" stop-color="#FFAB91"/>
      <stop offset="50%" stop-color="#FF6B6B"/>
      <stop offset="100%" stop-color="#EE5A52"/>
    </radialGradient>
    <radialGradient id="appleHighlight" cx="0.25" cy="0.3" r="0.4">
      <stop offset="0%" stop-color="#FFFFFF" stop-opacity="0.8"/>
      <stop offset="100%" stop-color="#FFFFFF" stop-opacity="0"/>
    </radialGradient>
  </defs>
  
  <!-- 苹果主体 -->
  <path d="M26 12 Q35 15 38 25 Q38 35 32 40 Q26 44 26 44 Q26 44 20 40 Q14 35 14 25 Q17 15 26 12 Z" fill="url(#appleGradient)" stroke="#EE5A52" stroke-width="0.5"/>
  
  <!-- 苹果顶部凹陷 -->
  <path d="M22 12 Q26 8 30 12" stroke="#C62828" stroke-width="1.5" fill="none"/>
  
  <!-- 高光效果 -->
  <ellipse cx="21" cy="20" rx="4" ry="6" fill="url(#appleHighlight)"/>
  
  <!-- 苹果柄 -->
  <path d="M26 8 Q26 6 26 4" stroke="#5D4037" stroke-width="2" fill="none" stroke-linecap="round"/>
  
  <!-- 叶子 -->
  <path d="M28 8 Q32 6 34 10 Q32 12 28 10" fill="#4CAF50"/>
  
  <!-- 苹果表面光泽 -->
  <path d="M18 22 Q26 20 34 24" stroke="#FFCDD2" stroke-width="1" fill="none" opacity="0.5"/>
</svg>