<svg width="96" height="96" viewBox="0 0 96 96" xmlns="http://www.w3.org/2000/svg">
  <defs>
    <radialGradient id="appleGrad" cx="0.35" cy="0.3" r="0.8">
      <stop offset="0%" stop-color="#FF8A80"/>
      <stop offset="30%" stop-color="#F44336"/>
      <stop offset="70%" stop-color="#C62828"/>
      <stop offset="100%" stop-color="#B71C1C"/>
    </radialGradient>
    <radialGradient id="highlight" cx="0.25" cy="0.25" r="0.3">
      <stop offset="0%" stop-color="#FFFFFF" stop-opacity="0.7"/>
      <stop offset="100%" stop-color="#FFFFFF" stop-opacity="0"/>
    </radialGradient>
  </defs>
  
  <!-- 苹果主体 - 经典苹果形状，填满画布 -->
  <path d="M48 92 C28 92 12 76 12 56 C12 40 20 26 32 20 C36 18 40 16 44 16 C46 14 48 12 48 12 C48 12 50 14 52 16 C56 16 60 18 64 20 C76 26 84 40 84 56 C84 76 68 92 48 92 Z" 
        fill="url(#appleGrad)" stroke="#B71C1C" stroke-width="1"/>
  
  <!-- 苹果顶部凹陷 -->
  <path d="M44 16 C46 14 48 12 48 12 C48 12 50 14 52 16 C50 18 48 20 48 20 C48 20 46 18 44 16 Z" 
        fill="#8D6E63" stroke="#5D4037" stroke-width="0.5"/>
  
  <!-- 苹果茎 -->
  <rect x="47" y="4" width="2" height="12" fill="#8D6E63" rx="1"/>
  
  <!-- 叶子 -->
  <ellipse cx="54" cy="8" rx="8" ry="4" fill="#4CAF50" transform="rotate(30 54 8)"/>
  
  <!-- 高光效果 -->
  <ellipse cx="36" cy="32" rx="12" ry="16" fill="url(#highlight)"/>
  
  <!-- 表面光泽 -->
  <path d="M48 92 C28 92 12 76 12 56 C12 40 20 26 32 20 C36 18 40 16 44 16 C46 14 48 12 48 12 C48 12 50 14 52 16 C56 16 60 18 64 20 C76 26 84 40 84 56 C84 76 68 92 48 92 Z" 
        fill="#FFCDD2" opacity="0.15"/>
</svg>