<svg width="128" height="128" viewBox="0 0 128 128" xmlns="http://www.w3.org/2000/svg">
  <defs>
    <!-- 苹果主体渐变 -->
    <radialGradient id="appleGradient" cx="0.3" cy="0.4" r="0.8">
      <stop offset="0%" stop-color="#FF8A80"/>
      <stop offset="30%" stop-color="#F44336"/>
      <stop offset="60%" stop-color="#D32F2F"/>
      <stop offset="100%" stop-color="#B71C1C"/>
    </radialGradient>
    
    <!-- 茎叶渐变 -->
    <linearGradient id="stemGradient" x1="0%" y1="0%" x2="0%" y2="100%">
      <stop offset="0%" stop-color="#66BB6A"/>
      <stop offset="100%" stop-color="#388E3C"/>
    </linearGradient>
    
    <!-- 高光渐变 -->
    <radialGradient id="appleHighlight" cx="0.35" cy="0.3" r="0.4">
      <stop offset="0%" stop-color="#FFFFFF" stop-opacity="0.8"/>
      <stop offset="100%" stop-color="#FFFFFF" stop-opacity="0"/>
    </radialGradient>
  </defs>
  
  <!-- 苹果主体 - 圆形带顶部凹陷，填满画布 -->
  <path d="M64 8 
           C40 8, 8 32, 8 64 
           C8 96, 32 120, 64 120 
           C96 120, 120 96, 120 64 
           C120 32, 88 8, 64 8 Z" 
        fill="url(#appleGradient)"/>
  
  <!-- 苹果顶部凹陷 -->
  <path d="M64 8 
           C58 12, 52 16, 48 20 
           C52 16, 58 12, 64 8 
           C70 12, 76 16, 80 20 
           C76 16, 70 12, 64 8 Z" 
        fill="url(#appleGradient)" opacity="0.7"/>
  
  <!-- 苹果茎 -->
  <rect x="62" y="2" width="4" height="18" rx="2" fill="url(#stemGradient)"/>
  
  <!-- 苹果叶子 -->
  <path d="M66 12 
           Q72 8, 78 10 
           Q82 12, 80 16 
           Q78 18, 74 16 
           Q70 14, 66 16 Z" 
        fill="url(#stemGradient)"/>
  
  <!-- 主高光 -->
  <ellipse cx="48" cy="48" rx="16" ry="20" fill="url(#appleHighlight)"/>
  
  <!-- 次要高光 -->
  <ellipse cx="80" cy="60" rx="8" ry="10" fill="url(#appleHighlight)" opacity="0.5"/>
  
  <!-- 表面光泽 -->
  <path d="M64 8 
           C40 8, 8 32, 8 64 
           C8 96, 32 120, 64 120 
           C96 120, 120 96, 120 64 
           C120 32, 88 8, 64 8 Z" 
        fill="none" stroke="#FFFFFF" stroke-width="1" opacity="0.2"/>
</svg>