<svg xmlns="http://www.w3.org/2000/svg" viewBox="0 0 200 200">
  <defs>
    <radialGradient id="blueberryGradient" cx="0.3" cy="0.3" r="0.8">
      <stop offset="0%" style="stop-color:#8A2BE2;stop-opacity:1" />
      <stop offset="30%" style="stop-color:#4169E1;stop-opacity:1" />
      <stop offset="70%" style="stop-color:#191970;stop-opacity:1" />
      <stop offset="100%" style="stop-color:#000080;stop-opacity:1" />
    </radialGradient>
    <radialGradient id="highlight" cx="0.25" cy="0.25" r="0.3">
      <stop offset="0%" style="stop-color:#FFFFFF;stop-opacity:0.6" />
      <stop offset="100%" style="stop-color:#FFFFFF;stop-opacity:0" />
    </radialGradient>
  </defs>
  
  <!-- Main blueberry body -->
  <circle cx="100" cy="110" r="70" fill="url(#blueberryGradient)" stroke="#000080" stroke-width="2"/>
  
  <!-- Crown/top -->
  <path d="M 70 50 Q 80 40 90 45 Q 100 35 110 45 Q 120 40 130 50 Q 125 60 120 55 Q 115 65 110 60 Q 105 70 100 65 Q 95 70 90 60 Q 85 65 80 55 Q 75 60 70 50 Z" 
        fill="#228B22" stroke="#006400" stroke-width="1"/>
  
  <!-- Small crown details -->
  <circle cx="85" cy="52" r="2" fill="#32CD32"/>
  <circle cx="100" cy="48" r="2" fill="#32CD32"/>
  <circle cx="115" cy="52" r="2" fill="#32CD32"/>
  
  <!-- Highlight -->
  <ellipse cx="85" cy="90" rx="20" ry="25" fill="url(#highlight)"/>
  
  <!-- Small texture dots -->
  <circle cx="90" cy="100" r="1.5" fill="#4169E1" opacity="0.7"/>
  <circle cx="110" cy="95" r="1.5" fill="#4169E1" opacity="0.7"/>
  <circle cx="105" cy="115" r="1.5" fill="#4169E1" opacity="0.7"/>
  <circle cx="85" cy="125" r="1.5" fill="#4169E1" opacity="0.7"/>
  <circle cx="115" cy="130" r="1.5" fill="#4169E1" opacity="0.7"/>
</svg>