<svg width="64" height="64" viewBox="0 0 64 64" xmlns="http://www.w3.org/2000/svg">
  <defs>
    <radialGradient id="cherryGrad" cx="0.35" cy="0.3" r="0.8">
      <stop offset="0%" stop-color="#FF6B9D"/>
      <stop offset="30%" stop-color="#DC2626"/>
      <stop offset="70%" stop-color="#991B1B"/>
      <stop offset="100%" stop-color="#450A0A"/>
    </radialGradient>
    <radialGradient id="highlight" cx="0.25" cy="0.25" r="0.3">
      <stop offset="0%" stop-color="#FFFFFF" stop-opacity="0.7"/>
      <stop offset="100%" stop-color="#FFFFFF" stop-opacity="0"/>
    </radialGradient>
  </defs>
  
  <!-- 樱桃主体 - 心形，填满画布 -->
  <path d="M32 60 C20 48 8 36 8 24 C8 12 18 4 28 8 C30 10 32 12 32 12 C32 12 34 10 36 8 C46 4 56 12 56 24 C56 36 44 48 32 60 Z" 
        fill="url(#cherryGrad)" stroke="#450A0A" stroke-width="1"/>
  
  <!-- 樱桃茎 -->
  <path d="M32 12 Q30 8 28 4" stroke="#22C55E" stroke-width="2" fill="none"/>
  
  <!-- 高光效果 -->
  <ellipse cx="24" cy="20" rx="6" ry="8" fill="url(#highlight)"/>
  
  <!-- 表面光泽 -->
  <path d="M32 60 C20 48 8 36 8 24 C8 12 18 4 28 8 C30 10 32 12 32 12 C32 12 34 10 36 8 C46 4 56 12 56 24 C56 36 44 48 32 60 Z" 
        fill="#FFB3BA" opacity="0.15"/>
</svg>