<svg width="64" height="64" viewBox="0 0 64 64" xmlns="http://www.w3.org/2000/svg">
  <defs>
    <!-- 樱桃主体渐变 -->
    <radialGradient id="cherryGradient" cx="0.3" cy="0.3" r="0.8">
      <stop offset="0%" stop-color="#FF6B9D"/>
      <stop offset="30%" stop-color="#E91E63"/>
      <stop offset="60%" stop-color="#C2185B"/>
      <stop offset="100%" stop-color="#880E4F"/>
    </radialGradient>
    
    <!-- 茎渐变 -->
    <linearGradient id="stemGradient" x1="0%" y1="0%" x2="0%" y2="100%">
      <stop offset="0%" stop-color="#4CAF50"/>
      <stop offset="100%" stop-color="#2E7D32"/>
    </linearGradient>
    
    <!-- 高光渐变 -->
    <radialGradient id="cherryHighlight" cx="0.35" cy="0.25" r="0.4">
      <stop offset="0%" stop-color="#FFFFFF" stop-opacity="0.8"/>
      <stop offset="100%" stop-color="#FFFFFF" stop-opacity="0"/>
    </radialGradient>
  </defs>
  
  <!-- 樱桃茎 -->
  <path d="M32 4 Q30 8 28 12 Q26 16 24 20" 
        stroke="url(#stemGradient)" stroke-width="3" fill="none" stroke-linecap="round"/>
  
  <!-- 樱桃主体 - 心形，填满画布 -->
  <path d="M32 20 
           C20 8, 4 16, 4 32 
           C4 48, 32 60, 32 60 
           C32 60, 60 48, 60 32 
           C60 16, 44 8, 32 20 Z" 
        fill="url(#cherryGradient)"/>
  
  <!-- 主高光 -->
  <ellipse cx="22" cy="28" rx="8" ry="6" fill="url(#cherryHighlight)"/>
  
  <!-- 次要高光 -->
  <ellipse cx="38" cy="32" rx="4" ry="3" fill="url(#cherryHighlight)" opacity="0.6"/>
  
  <!-- 表面光泽 -->
  <path d="M32 20 
           C20 8, 4 16, 4 32 
           C4 48, 32 60, 32 60 
           C32 60, 60 48, 60 32 
           C60 16, 44 8, 32 20 Z" 
        fill="none" stroke="#FFFFFF" stroke-width="1" opacity="0.2"/>
</svg>