<svg width="200" height="200" viewBox="0 0 200 200" xmlns="http://www.w3.org/2000/svg">
  <defs>
    <!-- 椰子外壳渐变 -->
    <radialGradient id="coconutShell" cx="0.4" cy="0.3" r="0.8">
      <stop offset="0%" stop-color="#8D6E63"/>
      <stop offset="30%" stop-color="#6D4C41"/>
      <stop offset="70%" stop-color="#5D4037"/>
      <stop offset="100%" stop-color="#3E2723"/>
    </radialGradient>
    
    <!-- 椰子纤维渐变 -->
    <radialGradient id="coconutFiber" cx="0.5" cy="0.4" r="0.7">
      <stop offset="0%" stop-color="#A1887F"/>
      <stop offset="50%" stop-color="#8D6E63"/>
      <stop offset="100%" stop-color="#5D4037"/>
    </radialGradient>
    
    <!-- 椰子高光 -->
    <radialGradient id="coconutHighlight" cx="0.3" cy="0.2" r="0.4">
      <stop offset="0%" stop-color="#FFFFFF" stop-opacity="0.4"/>
      <stop offset="50%" stop-color="#FFFFFF" stop-opacity="0.1"/>
      <stop offset="100%" stop-color="#FFFFFF" stop-opacity="0"/>
    </radialGradient>
    
    <!-- 椰子阴影 -->
    <radialGradient id="coconutShadow" cx="0.7" cy="0.8" r="0.5">
      <stop offset="0%" stop-color="#3E2723" stop-opacity="0"/>
      <stop offset="50%" stop-color="#2E2E2E" stop-opacity="0.4"/>
      <stop offset="100%" stop-color="#000000" stop-opacity="0.6"/>
    </radialGradient>
    
    <!-- 阴影滤镜 -->
    <filter id="dropShadow" x="-50%" y="-50%" width="200%" height="200%">
      <feDropShadow dx="4" dy="7" stdDeviation="5" flood-color="#000000" flood-opacity="0.4"/>
    </filter>
    
    <!-- 纤维纹理 -->
    <pattern id="fiberTexture" patternUnits="userSpaceOnUse" width="6" height="6">
      <path d="M0 3 Q3 1 6 3" stroke="#795548" stroke-width="0.5" fill="none" opacity="0.6"/>
      <path d="M0 1 Q3 3 6 1" stroke="#6D4C41" stroke-width="0.3" fill="none" opacity="0.4"/>
      <path d="M0 5 Q3 3 6 5" stroke="#8D6E63" stroke-width="0.4" fill="none" opacity="0.5"/>
    </pattern>
    
    <!-- 粗糙纹理 -->
    <pattern id="roughTexture" patternUnits="userSpaceOnUse" width="4" height="4">
      <circle cx="2" cy="2" r="0.4" fill="#795548" opacity="0.3"/>
      <circle cx="1" cy="1" r="0.2" fill="#6D4C41" opacity="0.4"/>
      <circle cx="3" cy="3" r="0.3" fill="#5D4037" opacity="0.2"/>
    </pattern>
  </defs>
  
  <!-- 椰子主体 -->
  <ellipse cx="100" cy="110" rx="60" ry="70" fill="url(#coconutShell)" filter="url(#dropShadow)"/>
  
  <!-- 纤维纹理层 -->
  <ellipse cx="100" cy="110" rx="60" ry="70" fill="url(#fiberTexture)"/>
  
  <!-- 粗糙纹理层 -->
  <ellipse cx="100" cy="110" rx="60" ry="70" fill="url(#roughTexture)"/>
  
  <!-- 椰子纵向纤维线条 -->
  <g stroke="#6D4C41" stroke-width="1" fill="none" opacity="0.6">
    <path d="M100 40 Q95 70 90 110 Q95 150 100 180"/>
    <path d="M100 40 Q105 70 110 110 Q105 150 100 180"/>
    <path d="M100 40 Q85 65 75 110 Q85 155 100 180"/>
    <path d="M100 40 Q115 65 125 110 Q115 155 100 180"/>
    <path d="M100 40 Q75 60 60 110 Q75 160 100 180"/>
    <path d="M100 40 Q125 60 140 110 Q125 160 100 180"/>
  </g>
  
  <!-- 椰子横向纤维线条 -->
  <g stroke="#795548" stroke-width="0.8" fill="none" opacity="0.4">
    <path d="M40 80 Q70 75 100 80 Q130 75 160 80"/>
    <path d="M45 100 Q70 95 100 100 Q130 95 155 100"/>
    <path d="M50 120 Q70 115 100 120 Q130 115 150 120"/>
    <path d="M55 140 Q70 135 100 140 Q130 135 145 140"/>
    <path d="M60 160 Q70 155 100 160 Q130 155 140 160"/>
  </g>
  
  <!-- 椰子顶部 -->
  <ellipse cx="100" cy="40" rx="15" ry="8" fill="url(#coconutFiber)"/>
  
  <!-- 椰子三个眼睛（特征性的三个洞） -->
  <g fill="#2E2E2E">
    <ellipse cx="85" cy="70" rx="4" ry="6" opacity="0.8"/>
    <ellipse cx="100" cy="65" rx="5" ry="7" opacity="0.8"/>
    <ellipse cx="115" cy="70" rx="4" ry="6" opacity="0.8"/>
  </g>
  
  <!-- 眼睛内部阴影 -->
  <g fill="#1A1A1A">
    <ellipse cx="85" cy="72" rx="2" ry="3" opacity="0.6"/>
    <ellipse cx="100" cy="67" rx="2.5" ry="3.5" opacity="0.6"/>
    <ellipse cx="115" cy="72" rx="2" ry="3" opacity="0.6"/>
  </g>
  
  <!-- 椰子表面凹凸纹理 -->
  <g fill="#A1887F" opacity="0.3">
    <ellipse cx="70" cy="90" rx="3" ry="2"/>
    <ellipse cx="130" cy="95" rx="2.5" ry="1.5"/>
    <ellipse cx="80" cy="130" rx="2" ry="3"/>
    <ellipse cx="120" cy="125" rx="3" ry="2"/>
    <ellipse cx="65" cy="150" rx="2.5" ry="2"/>
    <ellipse cx="135" cy="145" rx="2" ry="2.5"/>
  </g>
  
  <!-- 椰子阴影 -->
  <ellipse cx="100" cy="110" rx="60" ry="70" fill="url(#coconutShadow)"/>
  
  <!-- 椰子高光 -->
  <ellipse cx="80" cy="80" rx="20" ry="25" fill="url(#coconutHighlight)"/>
</svg>