<svg width="128" height="128" viewBox="0 0 128 128" xmlns="http://www.w3.org/2000/svg">
  <defs>
    <radialGradient id="coconutGrad" cx="0.35" cy="0.3" r="0.8">
      <stop offset="0%" stop-color="#D7CCC8"/>
      <stop offset="30%" stop-color="#8D6E63"/>
      <stop offset="70%" stop-color="#5D4037"/>
      <stop offset="100%" stop-color="#3E2723"/>
    </radialGradient>
    <radialGradient id="highlight" cx="0.25" cy="0.25" r="0.3">
      <stop offset="0%" stop-color="#FFFFFF" stop-opacity="0.5"/>
      <stop offset="100%" stop-color="#FFFFFF" stop-opacity="0"/>
    </radialGradient>
  </defs>
  
  <!-- 椰子主体 - 椭圆形，填满画布 -->
  <ellipse cx="64" cy="64" rx="60" ry="48" fill="url(#coconutGrad)" stroke="#3E2723" stroke-width="1"/>
  
  <!-- 椰子三个眼 -->
  <circle cx="48" cy="48" r="6" fill="#1A1A1A"/>
  <circle cx="64" cy="44" r="6" fill="#1A1A1A"/>
  <circle cx="80" cy="48" r="6" fill="#1A1A1A"/>
  
  <!-- 高光效果 -->
  <ellipse cx="48" cy="48" rx="16" ry="20" fill="url(#highlight)"/>
  
  <!-- 椰子纤维纹理 -->
  <g stroke="#3E2723" stroke-width="1" opacity="0.4" fill="none">
    <path d="M20 40 Q32 36 44 40"/>
    <path d="M24 56 Q36 52 48 56"/>
    <path d="M28 72 Q40 68 52 72"/>
    <path d="M32 88 Q44 84 56 88"/>
    <path d="M84 40 Q96 36 108 40"/>
    <path d="M80 56 Q92 52 104 56"/>
    <path d="M76 72 Q88 68 100 72"/>
    <path d="M72 88 Q84 84 96 88"/>
    <path d="M40 20 Q44 32 48 44"/>
    <path d="M56 20 Q60 32 64 44"/>
    <path d="M72 20 Q76 32 80 44"/>
    <path d="M88 20 Q92 32 96 44"/>
    <path d="M40 84 Q44 96 48 108"/>
    <path d="M56 84 Q60 96 64 108"/>
    <path d="M72 84 Q76 96 80 108"/>
    <path d="M88 84 Q92 96 96 108"/>
  </g>
  
  <!-- 表面光泽 -->
  <ellipse cx="64" cy="64" rx="60" ry="48" fill="#EFEBE9" opacity="0.1"/>
</svg>