<svg width="192" height="192" viewBox="0 0 192 192" xmlns="http://www.w3.org/2000/svg">
  <defs>
    <!-- 椰子主体渐变 -->
    <radialGradient id="coconutGradient" cx="0.3" cy="0.4" r="0.8">
      <stop offset="0%" stop-color="#D7CCC8"/>
      <stop offset="30%" stop-color="#A1887F"/>
      <stop offset="60%" stop-color="#8D6E63"/>
      <stop offset="100%" stop-color="#5D4037"/>
    </radialGradient>
    
    <!-- 纤维纹理渐变 -->
    <linearGradient id="fiberGradient" x1="0%" y1="0%" x2="100%" y2="100%">
      <stop offset="0%" stop-color="#6D4C41" stop-opacity="0.6"/>
      <stop offset="50%" stop-color="#8D6E63" stop-opacity="0.4"/>
      <stop offset="100%" stop-color="#5D4037" stop-opacity="0.6"/>
    </linearGradient>
    
    <!-- 高光渐变 -->
    <radialGradient id="coconutHighlight" cx="0.35" cy="0.3" r="0.4">
      <stop offset="0%" stop-color="#FFFFFF" stop-opacity="0.6"/>
      <stop offset="100%" stop-color="#FFFFFF" stop-opacity="0"/>
    </radialGradient>
    
    <!-- 三个眼孔渐变 -->
    <radialGradient id="eyeGradient" cx="0.3" cy="0.3" r="0.7">
      <stop offset="0%" stop-color="#3E2723"/>
      <stop offset="100%" stop-color="#1B0000"/>
    </radialGradient>
  </defs>
  
  <!-- 椰子主体 - 椭圆形，填满画布 -->
  <ellipse cx="96" cy="96" rx="88" ry="88" fill="url(#coconutGradient)"/>
  
  <!-- 纤维纹理层 -->
  <g stroke="url(#fiberGradient)" stroke-width="1.5" fill="none" opacity="0.7">
    <!-- 垂直纤维 -->
    <path d="M20 20 Q40 50 30 80 Q50 110 40 140 Q60 170 50 192"/>
    <path d="M40 8 Q60 40 50 70 Q70 100 60 130 Q80 160 70 192"/>
    <path d="M60 8 Q80 40 70 70 Q90 100 80 130 Q100 160 90 192"/>
    <path d="M80 8 Q100 40 90 70 Q110 100 100 130 Q120 160 110 192"/>
    <path d="M100 8 Q120 40 110 70 Q130 100 120 130 Q140 160 130 192"/>
    <path d="M120 8 Q140 40 130 70 Q150 100 140 130 Q160 160 150 192"/>
    <path d="M140 8 Q160 40 150 70 Q170 100 160 130 Q180 160 170 192"/>
    <path d="M160 20 Q180 50 170 80 Q190 110 180 140 Q200 170 190 192"/>
    
    <!-- 水平纤维 -->
    <path d="M8 40 Q40 60 70 50 Q100 70 130 60 Q160 80 192 70"/>
    <path d="M8 60 Q40 80 70 70 Q100 90 130 80 Q160 100 192 90"/>
    <path d="M8 80 Q40 100 70 90 Q100 110 130 100 Q160 120 192 110"/>
    <path d="M8 100 Q40 120 70 110 Q100 130 130 120 Q160 140 192 130"/>
    <path d="M8 120 Q40 140 70 130 Q100 150 130 140 Q160 160 192 150"/>
    <path d="M8 140 Q40 160 70 150 Q100 170 130 160 Q160 180 192 170"/>
  </g>
  
  <!-- 椰子的三个眼孔 -->
  <g fill="url(#eyeGradient)">
    <!-- 左上眼孔 -->
    <ellipse cx="70" cy="60" rx="8" ry="12"/>
    <!-- 右上眼孔 -->
    <ellipse cx="110" cy="65" rx="7" ry="10"/>
    <!-- 下方眼孔 -->
    <ellipse cx="90" cy="90" rx="6" ry="9"/>
  </g>
  
  <!-- 眼孔内部阴影 -->
  <g fill="#000000" opacity="0.8">
    <ellipse cx="70" cy="60" rx="5" ry="8"/>
    <ellipse cx="110" cy="65" rx="4" ry="6"/>
    <ellipse cx="90" cy="90" rx="3" ry="5"/>
  </g>
  
  <!-- 额外纤维细节 -->
  <g stroke="#6D4C41" stroke-width="1" fill="none" opacity="0.5">
    <path d="M25 30 Q45 60 35 90 Q55 120 45 150"/>
    <path d="M155 30 Q135 60 145 90 Q125 120 135 150"/>
    <path d="M30 25 Q60 45 90 35 Q120 55 150 45"/>
    <path d="M30 155 Q60 135 90 145 Q120 125 150 135"/>
  </g>
  
  <!-- 主高光 -->
  <ellipse cx="70" cy="70" rx="25" ry="30" fill="url(#coconutHighlight)"/>
  
  <!-- 次要高光 -->
  <ellipse cx="120" cy="110" rx="15" ry="18" fill="url(#coconutHighlight)" opacity="0.4"/>
  
  <!-- 表面光泽 -->
  <ellipse cx="96" cy="96" rx="88" ry="88" fill="none" stroke="#FFFFFF" stroke-width="1" opacity="0.15"/>
</svg>