<svg width="56" height="56" viewBox="0 0 56 56" xmlns="http://www.w3.org/2000/svg">
  <defs>
    <radialGradient id="coconutGradient" cx="0.3" cy="0.3" r="0.8">
      <stop offset="0%" stop-color="#D7CCC8"/>
      <stop offset="50%" stop-color="#A1887F"/>
      <stop offset="100%" stop-color="#6D4C41"/>
    </radialGradient>
    <radialGradient id="coconutHighlight" cx="0.25" cy="0.25" r="0.4">
      <stop offset="0%" stop-color="#FFFFFF" stop-opacity="0.5"/>
      <stop offset="100%" stop-color="#FFFFFF" stop-opacity="0"/>
    </radialGradient>
    <radialGradient id="fiberGradient" cx="0.5" cy="0.5" r="0.8">
      <stop offset="0%" stop-color="#8D6E63"/>
      <stop offset="100%" stop-color="#5D4037"/>
    </radialGradient>
    <filter id="coconutShadow">
      <feDropShadow dx="1.5" dy="2.5" stdDeviation="2" flood-color="#000000" flood-opacity="0.3"/>
    </filter>
  </defs>
  
  <!-- 椰子主体 -->
  <ellipse cx="28" cy="30" rx="22" ry="20" 
           fill="url(#coconutGradient)" 
           stroke="#5D4037" 
           stroke-width="0.5"
           filter="url(#coconutShadow)"/>
  
  <!-- 椰子纤维质感 - 垂直纹理 -->
  <g stroke="#795548" stroke-width="0.8" fill="none" opacity="0.6">
    <path d="M12 15 Q14 25 12 35 Q14 45 12 50"/>
    <path d="M16 12 Q18 22 16 32 Q18 42 16 50"/>
    <path d="M20 10 Q22 20 20 30 Q22 40 20 50"/>
    <path d="M24 10 Q26 20 24 30 Q26 40 24 50"/>
    <path d="M28 10 Q30 20 28 30 Q30 40 28 50"/>
    <path d="M32 10 Q34 20 32 30 Q34 40 32 50"/>
    <path d="M36 10 Q38 20 36 30 Q38 40 36 50"/>
    <path d="M40 12 Q42 22 40 32 Q42 42 40 50"/>
    <path d="M44 15 Q46 25 44 35 Q46 45 44 50"/>
  </g>
  
  <!-- 椰子纤维质感 - 水平纹理 -->
  <g stroke="#8D6E63" stroke-width="0.5" fill="none" opacity="0.4">
    <path d="M8 20 Q28 18 48 22"/>
    <path d="M10 25 Q28 23 46 27"/>
    <path d="M8 30 Q28 28 48 32"/>
    <path d="M10 35 Q28 33 46 37"/>
    <path d="M12 40 Q28 38 44 42"/>
    <path d="M14 45 Q28 43 42 47"/>
  </g>
  
  <!-- 椰子三个眼睛 -->
  <g fill="#3E2723" stroke="#2E2E2E" stroke-width="0.5">
    <!-- 左眼 -->
    <ellipse cx="20" cy="18" rx="3" ry="4" opacity="0.8"/>
    <ellipse cx="20" cy="18" rx="1.5" ry="2" fill="#1A1A1A"/>
    
    <!-- 右眼 -->
    <ellipse cx="36" cy="18" rx="3" ry="4" opacity="0.8"/>
    <ellipse cx="36" cy="18" rx="1.5" ry="2" fill="#1A1A1A"/>
    
    <!-- 嘴巴 -->
    <ellipse cx="28" cy="25" rx="2.5" ry="3.5" opacity="0.8"/>
    <ellipse cx="28" cy="25" rx="1.2" ry="1.8" fill="#1A1A1A"/>
  </g>
  
  <!-- 高光效果 -->
  <ellipse cx="22" cy="22" rx="6" ry="7" fill="url(#coconutHighlight)"/>
  
  <!-- 椰子表面粗糙纹理 -->
  <g stroke="#A1887F" stroke-width="0.3" fill="none" opacity="0.3">
    <path d="M15 16 Q18 18 21 16"/>
    <path d="M35 16 Q38 18 41 16"/>
    <path d="M12 28 Q15 30 18 28"/>
    <path d="M38 28 Q41 30 44 28"/>
    <path d="M18 38 Q21 40 24 38"/>
    <path d="M32 38 Q35 40 38 38"/>
  </g>
  
  <!-- 椰子底部纤维 -->
  <g stroke="#6D4C41" stroke-width="1" fill="none" opacity="0.5">
    <path d="M20 48 Q22 52 24 50"/>
    <path d="M24 49 Q26 53 28 51"/>
    <path d="M28 49 Q30 53 32 51"/>
    <path d="M32 48 Q34 52 36 50"/>
  </g>
  
  <!-- 椰子表面光泽 -->
  <path d="M12 24 Q28 20 44 26" stroke="#BCAAA4" stroke-width="1" fill="none" opacity="0.4"/>
</svg>