<svg width="40" height="40" viewBox="0 0 40 40" xmlns="http://www.w3.org/2000/svg">
  <defs>
    <radialGradient id="grapeGradient" cx="0.3" cy="0.3" r="0.8">
      <stop offset="0%" stop-color="#BA68C8"/>
      <stop offset="60%" stop-color="#8E24AA"/>
      <stop offset="100%" stop-color="#6A1B9A"/>
    </radialGradient>
    <radialGradient id="grapeHighlight" cx="0.25" cy="0.25" r="0.4">
      <stop offset="0%" stop-color="#FFFFFF" stop-opacity="0.6"/>
      <stop offset="100%" stop-color="#FFFFFF" stop-opacity="0"/>
    </radialGradient>
    <filter id="grapeShadow">
      <feDropShadow dx="1" dy="1.5" stdDeviation="1" flood-color="#000000" flood-opacity="0.25"/>
    </filter>
  </defs>
  
  <!-- 葡萄主体 - 椭圆形状更像真实葡萄 -->
  <ellipse cx="20" cy="22" rx="16" ry="14" 
           fill="url(#grapeGradient)" 
           stroke="#6A1B9A" 
           stroke-width="0.5"
           filter="url(#grapeShadow)"/>
  
  <!-- 高光效果 -->
  <ellipse cx="16" cy="18" rx="4" ry="5" fill="url(#grapeHighlight)"/>
  
  <!-- 葡萄表面纹理 - 模拟葡萄皮的质感 -->
  <ellipse cx="12" cy="16" rx="1.2" ry="0.8" fill="#9C27B0" opacity="0.4" transform="rotate(30 12 16)"/>
  <ellipse cx="28" cy="20" rx="1.5" ry="1" fill="#9C27B0" opacity="0.4" transform="rotate(-20 28 20)"/>
  <ellipse cx="18" cy="28" rx="1.3" ry="0.9" fill="#9C27B0" opacity="0.4" transform="rotate(45 18 28)"/>
  <ellipse cx="25" cy="30" rx="1.1" ry="0.7" fill="#9C27B0" opacity="0.4" transform="rotate(-30 25 30)"/>
  <ellipse cx="15" cy="32" rx="1" ry="0.6" fill="#9C27B0" opacity="0.4"/>
  
  <!-- 更多细小纹理 -->
  <ellipse cx="22" cy="25" rx="0.8" ry="0.5" fill="#7B1FA2" opacity="0.3" transform="rotate(60 22 25)"/>
  <ellipse cx="14" cy="24" rx="0.7" ry="0.4" fill="#7B1FA2" opacity="0.3" transform="rotate(-45 14 24)"/>
  <ellipse cx="26" cy="27" rx="0.9" ry="0.6" fill="#7B1FA2" opacity="0.3" transform="rotate(15 26 27)"/>
  
  <!-- 葡萄柄 -->
  <path d="M20 8 Q20 6 20 4" 
        stroke="#5D4037" 
        stroke-width="2.5" 
        fill="none" 
        stroke-linecap="round"
        filter="url(#grapeShadow)"/>
  
  <!-- 葡萄叶子 - 更复杂的形状 -->
  <g filter="url(#grapeShadow)">
    <path d="M22 8 Q28 6 32 12 Q30 16 26 14 Q24 12 22 10" fill="#4CAF50"/>
    <path d="M18 8 Q12 6 8 12 Q10 16 14 14 Q16 12 18 10" fill="#66BB6A"/>
  </g>
  
  <!-- 叶子纹理 -->
  <path d="M24 10 Q26 8 28 10" stroke="#2E7D32" stroke-width="0.4" fill="none"/>
  <path d="M16 10 Q14 8 12 10" stroke="#2E7D32" stroke-width="0.4" fill="none"/>
  <path d="M26 12 Q28 10 30 12" stroke="#388E3C" stroke-width="0.3" fill="none"/>
  <path d="M14 12 Q12 10 10 12" stroke="#388E3C" stroke-width="0.3" fill="none"/>
  
  <!-- 葡萄表面光泽 -->
  <path d="M10 20 Q20 18 30 22" stroke="#E1BEE7" stroke-width="0.8" fill="none" opacity="0.4"/>
</svg>