<svg width="60" height="60" viewBox="0 0 60 60" xmlns="http://www.w3.org/2000/svg">
  <defs>
    <!-- 葡萄主体渐变 -->
    <radialGradient id="grapeGradient" cx="0.25" cy="0.2" r="0.8">
      <stop offset="0%" stop-color="#E1BEE7"/>
      <stop offset="30%" stop-color="#9C27B0"/>
      <stop offset="70%" stop-color="#6A1B9A"/>
      <stop offset="100%" stop-color="#4A148C"/>
    </radialGradient>
    
    <!-- 单个葡萄粒渐变 -->
    <radialGradient id="singleGrapeGradient" cx="0.2" cy="0.15" r="0.9">
      <stop offset="0%" stop-color="#E1BEE7"/>
      <stop offset="40%" stop-color="#AB47BC"/>
      <stop offset="80%" stop-color="#7B1FA2"/>
      <stop offset="100%" stop-color="#4A148C"/>
    </radialGradient>
    
    <!-- 高光渐变 -->
    <radialGradient id="grapeHighlight" cx="0.2" cy="0.15" r="0.4">
      <stop offset="0%" stop-color="#FFFFFF" stop-opacity="0.9"/>
      <stop offset="50%" stop-color="#FFFFFF" stop-opacity="0.4"/>
      <stop offset="100%" stop-color="#FFFFFF" stop-opacity="0"/>
    </radialGradient>
    
    <!-- 叶子渐变 -->
    <linearGradient id="leafGradient" x1="0" y1="0" x2="1" y2="1">
      <stop offset="0%" stop-color="#A5D6A7"/>
      <stop offset="50%" stop-color="#4CAF50"/>
      <stop offset="100%" stop-color="#2E7D32"/>
    </linearGradient>
    
    <!-- 阴影滤镜 -->
    <filter id="dropShadow" x="-50%" y="-50%" width="200%" height="200%">
      <feDropShadow dx="2" dy="3" stdDeviation="2" flood-color="#000000" flood-opacity="0.3"/>
    </filter>
  </defs>
  
  <!-- 葡萄串主体 - 第一排 -->
  <circle cx="30" cy="15" r="5" fill="url(#singleGrapeGradient)" filter="url(#dropShadow)"/>
  <ellipse cx="28" cy="13" rx="1.5" ry="2" fill="url(#grapeHighlight)"/>
  
  <!-- 第二排 -->
  <circle cx="25" cy="22" r="5.5" fill="url(#singleGrapeGradient)" filter="url(#dropShadow)"/>
  <ellipse cx="23" cy="20" rx="1.5" ry="2" fill="url(#grapeHighlight)"/>
  
  <circle cx="35" cy="22" r="5.5" fill="url(#singleGrapeGradient)" filter="url(#dropShadow)"/>
  <ellipse cx="33" cy="20" rx="1.5" ry="2" fill="url(#grapeHighlight)"/>
  
  <!-- 第三排 -->
  <circle cx="20" cy="30" r="6" fill="url(#singleGrapeGradient)" filter="url(#dropShadow)"/>
  <ellipse cx="18" cy="28" rx="1.8" ry="2.2" fill="url(#grapeHighlight)"/>
  
  <circle cx="30" cy="29" r="6" fill="url(#singleGrapeGradient)" filter="url(#dropShadow)"/>
  <ellipse cx="28" cy="27" rx="1.8" ry="2.2" fill="url(#grapeHighlight)"/>
  
  <circle cx="40" cy="30" r="6" fill="url(#singleGrapeGradient)" filter="url(#dropShadow)"/>
  <ellipse cx="38" cy="28" rx="1.8" ry="2.2" fill="url(#grapeHighlight)"/>
  
  <!-- 第四排 -->
  <circle cx="16" cy="38" r="5.8" fill="url(#singleGrapeGradient)" filter="url(#dropShadow)"/>
  <ellipse cx="14" cy="36" rx="1.6" ry="2" fill="url(#grapeHighlight)"/>
  
  <circle cx="26" cy="37" r="6.2" fill="url(#singleGrapeGradient)" filter="url(#dropShadow)"/>
  <ellipse cx="24" cy="35" rx="1.8" ry="2.2" fill="url(#grapeHighlight)"/>
  
  <circle cx="34" cy="37" r="6.2" fill="url(#singleGrapeGradient)" filter="url(#dropShadow)"/>
  <ellipse cx="32" cy="35" rx="1.8" ry="2.2" fill="url(#grapeHighlight)"/>
  
  <circle cx="44" cy="38" r="5.8" fill="url(#singleGrapeGradient)" filter="url(#dropShadow)"/>
  <ellipse cx="42" cy="36" rx="1.6" ry="2" fill="url(#grapeHighlight)"/>
  
  <!-- 第五排 -->
  <circle cx="20" cy="46" r="5.5" fill="url(#singleGrapeGradient)" filter="url(#dropShadow)"/>
  <ellipse cx="18" cy="44" rx="1.5" ry="2" fill="url(#grapeHighlight)"/>
  
  <circle cx="30" cy="45" r="6" fill="url(#singleGrapeGradient)" filter="url(#dropShadow)"/>
  <ellipse cx="28" cy="43" rx="1.8" ry="2.2" fill="url(#grapeHighlight)"/>
  
  <circle cx="40" cy="46" r="5.5" fill="url(#singleGrapeGradient)" filter="url(#dropShadow)"/>
  <ellipse cx="38" cy="44" rx="1.5" ry="2" fill="url(#grapeHighlight)"/>
  
  <!-- 第六排（底部） -->
  <circle cx="25" cy="53" r="5" fill="url(#singleGrapeGradient)" filter="url(#dropShadow)"/>
  <ellipse cx="23" cy="51" rx="1.4" ry="1.8" fill="url(#grapeHighlight)"/>
  
  <circle cx="35" cy="53" r="5" fill="url(#singleGrapeGradient)" filter="url(#dropShadow)"/>
  <ellipse cx="33" cy="51" rx="1.4" ry="1.8" fill="url(#grapeHighlight)"/>
  
  <!-- 葡萄柄 -->
  <path d="M30 15 Q30 12 30 8" 
        stroke="#5D4037" 
        stroke-width="2.5" 
        fill="none" 
        stroke-linecap="round"
        filter="url(#dropShadow)"/>
  
  <!-- 叶子 -->
  <path d="M32 12 Q38 6 44 12 Q42 18 36 16 Q32 14 32 12" 
        fill="url(#leafGradient)"
        stroke="#1B5E20"
        stroke-width="0.5"
        filter="url(#dropShadow)"/>
  
  <!-- 叶子纹理 -->
  <path d="M35 12 Q38 8 41 13" 
        stroke="#1B5E20" 
        stroke-width="0.8" 
        fill="none" 
        opacity="0.7"/>
  
  <path d="M36 10 Q39 9 42 11" 
        stroke="#1B5E20" 
        stroke-width="0.6" 
        fill="none" 
        opacity="0.5"/>
  
  <!-- 第二片叶子 -->
  <path d="M28 12 Q22 6 16 12 Q18 18 24 16 Q28 14 28 12" 
        fill="url(#leafGradient)"
        stroke="#1B5E20"
        stroke-width="0.5"
        filter="url(#dropShadow)"/>
  
  <!-- 第二片叶子纹理 -->
  <path d="M25 12 Q22 8 19 13" 
        stroke="#1B5E20" 
        stroke-width="0.8" 
        fill="none" 
        opacity="0.7"/>
  
  <!-- 葡萄串整体光泽 -->
  <path d="M15 25 Q30 18 45 25" 
        stroke="#E1BEE7" 
        stroke-width="1" 
        fill="none" 
        opacity="0.3"/>
</svg>