<svg width="200" height="200" viewBox="0 0 200 200" xmlns="http://www.w3.org/2000/svg">
  <defs>
    <!-- 猕猴桃外皮渐变 -->
    <radialGradient id="kiwiSkin" cx="0.4" cy="0.3" r="0.8">
      <stop offset="0%" stop-color="#8D6E63"/>
      <stop offset="30%" stop-color="#6D4C41"/>
      <stop offset="70%" stop-color="#5D4037"/>
      <stop offset="100%" stop-color="#3E2723"/>
    </radialGradient>
    
    <!-- 猕猴桃果肉渐变 -->
    <radialGradient id="kiwiFruit" cx="0.5" cy="0.5" r="0.6">
      <stop offset="0%" stop-color="#C8E6C9"/>
      <stop offset="30%" stop-color="#A5D6A7"/>
      <stop offset="60%" stop-color="#81C784"/>
      <stop offset="100%" stop-color="#66BB6A"/>
    </radialGradient>
    
    <!-- 猕猴桃中心渐变 -->
    <radialGradient id="kiwiCenter" cx="0.5" cy="0.5" r="0.3">
      <stop offset="0%" stop-color="#FFFFFF"/>
      <stop offset="50%" stop-color="#F1F8E9"/>
      <stop offset="100%" stop-color="#DCEDC8"/>
    </radialGradient>
    
    <!-- 高光 -->
    <radialGradient id="kiwiHighlight" cx="0.3" cy="0.2" r="0.4">
      <stop offset="0%" stop-color="#FFFFFF" stop-opacity="0.6"/>
      <stop offset="50%" stop-color="#FFFFFF" stop-opacity="0.2"/>
      <stop offset="100%" stop-color="#FFFFFF" stop-opacity="0"/>
    </radialGradient>
    
    <!-- 阴影 -->
    <radialGradient id="kiwiShadow" cx="0.7" cy="0.8" r="0.5">
      <stop offset="0%" stop-color="#3E2723" stop-opacity="0"/>
      <stop offset="50%" stop-color="#2E2E2E" stop-opacity="0.3"/>
      <stop offset="100%" stop-color="#000000" stop-opacity="0.5"/>
    </radialGradient>
    
    <!-- 阴影滤镜 -->
    <filter id="dropShadow" x="-50%" y="-50%" width="200%" height="200%">
      <feDropShadow dx="3" dy="6" stdDeviation="4" flood-color="#000000" flood-opacity="0.3"/>
    </filter>
    
    <!-- 毛茸茸纹理 -->
    <pattern id="fuzzyTexture" patternUnits="userSpaceOnUse" width="4" height="4">
      <circle cx="2" cy="2" r="0.3" fill="#795548" opacity="0.4"/>
      <circle cx="1" cy="1" r="0.2" fill="#8D6E63" opacity="0.3"/>
      <circle cx="3" cy="3" r="0.2" fill="#6D4C41" opacity="0.3"/>
    </pattern>
  </defs>
  
  <!-- 猕猴桃外皮 -->
  <ellipse cx="100" cy="100" rx="50" ry="55" fill="url(#kiwiSkin)" filter="url(#dropShadow)"/>
  
  <!-- 毛茸茸纹理 -->
  <ellipse cx="100" cy="100" rx="50" ry="55" fill="url(#fuzzyTexture)"/>
  
  <!-- 猕猴桃切面（果肉） -->
  <ellipse cx="100" cy="100" rx="35" ry="40" fill="url(#kiwiFruit)"/>
  
  <!-- 猕猴桃中心白色部分 -->
  <ellipse cx="100" cy="100" rx="8" ry="10" fill="url(#kiwiCenter)"/>
  
  <!-- 猕猴桃种子 -->
  <g fill="#2E2E2E" opacity="0.6">
    <ellipse cx="100" cy="85" rx="1" ry="2" transform="rotate(0 100 85)"/>
    <ellipse cx="108" cy="90" rx="1" ry="2" transform="rotate(30 108 90)"/>
    <ellipse cx="112" cy="100" rx="1" ry="2" transform="rotate(60 112 100)"/>
    <ellipse cx="108" cy="110" rx="1" ry="2" transform="rotate(90 108 110)"/>
    <ellipse cx="100" cy="115" rx="1" ry="2" transform="rotate(120 100 115)"/>
    <ellipse cx="92" cy="110" rx="1" ry="2" transform="rotate(150 92 110)"/>
    <ellipse cx="88" cy="100" rx="1" ry="2" transform="rotate(180 88 100)"/>
    <ellipse cx="92" cy="90" rx="1" ry="2" transform="rotate(210 92 90)"/>
  </g>
  
  <!-- 果肉纹理线条 -->
  <g stroke="#4CAF50" stroke-width="0.5" fill="none" opacity="0.3">
    <path d="M100 75 Q105 85 100 95 Q95 105 100 115"/>
    <path d="M85 100 Q95 95 105 100 Q115 105 125 100"/>
    <path d="M90 85 Q100 90 110 85"/>
    <path d="M90 115 Q100 110 110 115"/>
  </g>
  
  <!-- 阴影 -->
  <ellipse cx="100" cy="100" rx="50" ry="55" fill="url(#kiwiShadow)"/>
  
  <!-- 高光 -->
  <ellipse cx="85" cy="75" rx="15" ry="20" fill="url(#kiwiHighlight)"/>
</svg>