<svg width="96" height="96" viewBox="0 0 96 96" xmlns="http://www.w3.org/2000/svg">
  <defs>
    <radialGradient id="kiwiGrad" cx="0.35" cy="0.3" r="0.8">
      <stop offset="0%" stop-color="#D7CCC8"/>
      <stop offset="30%" stop-color="#8D6E63"/>
      <stop offset="70%" stop-color="#5D4037"/>
      <stop offset="100%" stop-color="#3E2723"/>
    </radialGradient>
    <radialGradient id="highlight" cx="0.25" cy="0.25" r="0.3">
      <stop offset="0%" stop-color="#FFFFFF" stop-opacity="0.5"/>
      <stop offset="100%" stop-color="#FFFFFF" stop-opacity="0"/>
    </radialGradient>
  </defs>
  
  <!-- 猕猴桃主体 - 椭圆形，填满画布 -->
  <ellipse cx="48" cy="48" rx="44" ry="36" fill="url(#kiwiGrad)" stroke="#3E2723" stroke-width="1"/>
  
  <!-- 高光效果 -->
  <ellipse cx="36" cy="36" rx="12" ry="10" fill="url(#highlight)"/>
  
  <!-- 猕猴桃表面绒毛纹理 -->
  <g stroke="#3E2723" stroke-width="0.5" opacity="0.4" fill="none">
    <path d="M20 32 L24 36"/>
    <path d="M28 28 L32 32"/>
    <path d="M36 24 L40 28"/>
    <path d="M44 20 L48 24"/>
    <path d="M52 20 L56 24"/>
    <path d="M60 24 L64 28"/>
    <path d="M68 28 L72 32"/>
    <path d="M76 32 L80 36"/>
    <path d="M16 48 L20 52"/>
    <path d="M24 44 L28 48"/>
    <path d="M32 40 L36 44"/>
    <path d="M40 36 L44 40"/>
    <path d="M52 36 L56 40"/>
    <path d="M60 40 L64 44"/>
    <path d="M68 44 L72 48"/>
    <path d="M76 48 L80 52"/>
    <path d="M20 64 L24 68"/>
    <path d="M28 60 L32 64"/>
    <path d="M36 56 L40 60"/>
    <path d="M44 52 L48 56"/>
    <path d="M52 52 L56 56"/>
    <path d="M60 56 L64 60"/>
    <path d="M68 60 L72 64"/>
    <path d="M76 64 L80 68"/>
  </g>
  
  <!-- 表面光泽 -->
  <ellipse cx="48" cy="48" rx="44" ry="36" fill="#EFEBE9" opacity="0.1"/>
</svg>