<svg width="56" height="56" viewBox="0 0 56 56" xmlns="http://www.w3.org/2000/svg">
  <defs>
    <radialGradient id="kiwiGradient" cx="0.3" cy="0.3" r="0.8">
      <stop offset="0%" stop-color="#A5D6A7"/>
      <stop offset="50%" stop-color="#66BB6A"/>
      <stop offset="100%" stop-color="#4CAF50"/>
    </radialGradient>
    <radialGradient id="kiwiHighlight" cx="0.25" cy="0.25" r="0.4">
      <stop offset="0%" stop-color="#FFFFFF" stop-opacity="0.6"/>
      <stop offset="100%" stop-color="#FFFFFF" stop-opacity="0"/>
    </radialGradient>
    <radialGradient id="kiwiCenter" cx="0.5" cy="0.5" r="0.3">
      <stop offset="0%" stop-color="#FFFFFF" stop-opacity="0.8"/>
      <stop offset="100%" stop-color="#E8F5E8" stop-opacity="0.4"/>
    </radialGradient>
    <filter id="kiwiShadow">
      <feDropShadow dx="1.5" dy="2" stdDeviation="1.5" flood-color="#000000" flood-opacity="0.2"/>
    </filter>
  </defs>
  
  <!-- 猕猴桃主体 -->
  <ellipse cx="28" cy="28" rx="24" ry="22" 
           fill="url(#kiwiGradient)" 
           stroke="#4CAF50" 
           stroke-width="0.5"
           filter="url(#kiwiShadow)"/>
  
  <!-- 高光效果 -->
  <ellipse cx="22" cy="22" rx="6" ry="7" fill="url(#kiwiHighlight)"/>
  
  <!-- 猕猴桃中心白色部分 -->
  <ellipse cx="28" cy="28" rx="8" ry="7" fill="url(#kiwiCenter)"/>
  
  <!-- 猕猴桃籽 - 围绕中心排列 -->
  <g fill="#2E7D32" opacity="0.7">
    <!-- 内圈籽 -->
    <ellipse cx="28" cy="22" rx="0.8" ry="0.5" transform="rotate(0 28 22)"/>
    <ellipse cx="32" cy="24" rx="0.8" ry="0.5" transform="rotate(30 32 24)"/>
    <ellipse cx="34" cy="28" rx="0.8" ry="0.5" transform="rotate(60 34 28)"/>
    <ellipse cx="32" cy="32" rx="0.8" ry="0.5" transform="rotate(90 32 32)"/>
    <ellipse cx="28" cy="34" rx="0.8" ry="0.5" transform="rotate(120 28 34)"/>
    <ellipse cx="24" cy="32" rx="0.8" ry="0.5" transform="rotate(150 24 32)"/>
    <ellipse cx="22" cy="28" rx="0.8" ry="0.5" transform="rotate(180 22 28)"/>
    <ellipse cx="24" cy="24" rx="0.8" ry="0.5" transform="rotate(210 24 24)"/>
    
    <!-- 外圈籽 -->
    <ellipse cx="28" cy="16" rx="0.7" ry="0.4" transform="rotate(0 28 16)"/>
    <ellipse cx="36" cy="20" rx="0.7" ry="0.4" transform="rotate(25 36 20)"/>
    <ellipse cx="40" cy="28" rx="0.7" ry="0.4" transform="rotate(50 40 28)"/>
    <ellipse cx="36" cy="36" rx="0.7" ry="0.4" transform="rotate(75 36 36)"/>
    <ellipse cx="28" cy="40" rx="0.7" ry="0.4" transform="rotate(100 28 40)"/>
    <ellipse cx="20" cy="36" rx="0.7" ry="0.4" transform="rotate(125 20 36)"/>
    <ellipse cx="16" cy="28" rx="0.7" ry="0.4" transform="rotate(150 16 28)"/>
    <ellipse cx="20" cy="20" rx="0.7" ry="0.4" transform="rotate(175 20 20)"/>
    
    <!-- 更外圈的小籽 -->
    <ellipse cx="30" cy="12" rx="0.5" ry="0.3" transform="rotate(10 30 12)"/>
    <ellipse cx="42" cy="22" rx="0.5" ry="0.3" transform="rotate(35 42 22)"/>
    <ellipse cx="44" cy="34" rx="0.5" ry="0.3" transform="rotate(60 44 34)"/>
    <ellipse cx="34" cy="44" rx="0.5" ry="0.3" transform="rotate(85 34 44)"/>
    <ellipse cx="22" cy="44" rx="0.5" ry="0.3" transform="rotate(110 22 44)"/>
    <ellipse cx="12" cy="34" rx="0.5" ry="0.3" transform="rotate(135 12 34)"/>
    <ellipse cx="12" cy="22" rx="0.5" ry="0.3" transform="rotate(160 12 22)"/>
    <ellipse cx="26" cy="12" rx="0.5" ry="0.3" transform="rotate(185 26 12)"/>
  </g>
  
  <!-- 猕猴桃表面绒毛质感 -->
  <g stroke="#388E3C" stroke-width="0.3" fill="none" opacity="0.4">
    <path d="M15 20 Q28 18 41 22"/>
    <path d="M12 28 Q28 26 44 30"/>
    <path d="M15 36 Q28 34 41 38"/>
    <path d="M18 15 Q28 13 38 17"/>
    <path d="M18 41 Q28 39 38 43"/>
  </g>
  
  <!-- 更细的绒毛纹理 -->
  <g stroke="#66BB6A" stroke-width="0.2" fill="none" opacity="0.3">
    <path d="M20 18 Q28 16 36 20"/>
    <path d="M18 25 Q28 23 38 27"/>
    <path d="M18 31 Q28 29 38 33"/>
    <path d="M20 38 Q28 36 36 40"/>
  </g>
  
  <!-- 猕猴桃表面光泽 -->
  <path d="M16 24 Q28 22 40 26" stroke="#C8E6C9" stroke-width="1" fill="none" opacity="0.4"/>
</svg>