<svg width="96" height="96" viewBox="0 0 96 96" xmlns="http://www.w3.org/2000/svg">
  <defs>
    <radialGradient id="lemonGrad" cx="0.35" cy="0.3" r="0.8">
      <stop offset="0%" stop-color="#FFF59D"/>
      <stop offset="30%" stop-color="#FFEB3B"/>
      <stop offset="70%" stop-color="#FBC02D"/>
      <stop offset="100%" stop-color="#F57F17"/>
    </radialGradient>
    <radialGradient id="highlight" cx="0.25" cy="0.25" r="0.3">
      <stop offset="0%" stop-color="#FFFFFF" stop-opacity="0.8"/>
      <stop offset="100%" stop-color="#FFFFFF" stop-opacity="0"/>
    </radialGradient>
  </defs>
  
  <!-- 柠檬主体 - 椭圆形，两端尖，填满画布 -->
  <path d="M48 8 C60 8 72 16 80 28 C88 40 88 56 80 68 C72 80 60 88 48 88 C36 88 24 80 16 68 C8 56 8 40 16 28 C24 16 36 8 48 8 Z" 
        fill="url(#lemonGrad)" stroke="#F57F17" stroke-width="1"/>
  
  <!-- 柠檬顶部尖端 -->
  <ellipse cx="48" cy="8" rx="4" ry="6" fill="#F57F17"/>
  
  <!-- 柠檬底部尖端 -->
  <ellipse cx="48" cy="88" rx="4" ry="6" fill="#F57F17"/>
  
  <!-- 高光效果 -->
  <ellipse cx="36" cy="32" rx="12" ry="16" fill="url(#highlight)"/>
  
  <!-- 柠檬表面纹理 -->
  <g fill="#F57F17" opacity="0.3">
    <circle cx="32" cy="40" r="1"/>
    <circle cx="56" cy="36" r="1"/>
    <circle cx="40" cy="60" r="1"/>
    <circle cx="64" cy="56" r="1"/>
    <circle cx="28" cy="64" r="1"/>
    <circle cx="60" cy="72" r="1"/>
  </g>
  
  <!-- 表面光泽 -->
  <path d="M48 8 C60 8 72 16 80 28 C88 40 88 56 80 68 C72 80 60 88 48 88 C36 88 24 80 16 68 C8 56 8 40 16 28 C24 16 36 8 48 8 Z" 
        fill="#FFFDE7" opacity="0.2"/>
</svg>