<svg width="96" height="96" viewBox="0 0 96 96" xmlns="http://www.w3.org/2000/svg">
  <defs>
    <!-- 柠檬主体渐变 -->
    <radialGradient id="lemonGradient" cx="0.3" cy="0.3" r="0.8">
      <stop offset="0%" stop-color="#FFF59D"/>
      <stop offset="30%" stop-color="#FFEB3B"/>
      <stop offset="60%" stop-color="#FBC02D"/>
      <stop offset="100%" stop-color="#F57F17"/>
    </radialGradient>
    
    <!-- 高光渐变 -->
    <radialGradient id="lemonHighlight" cx="0.35" cy="0.25" r="0.4">
      <stop offset="0%" stop-color="#FFFFFF" stop-opacity="0.8"/>
      <stop offset="100%" stop-color="#FFFFFF" stop-opacity="0"/>
    </radialGradient>
    
    <!-- 纹理渐变 -->
    <radialGradient id="textureGradient" cx="0.5" cy="0.5" r="0.5">
      <stop offset="0%" stop-color="#FFEB3B" stop-opacity="0.3"/>
      <stop offset="100%" stop-color="#FBC02D" stop-opacity="0.1"/>
    </radialGradient>
  </defs>
  
  <!-- 柠檬主体 - 椭圆形，填满画布 -->
  <ellipse cx="48" cy="48" rx="46" ry="46" fill="url(#lemonGradient)"/>
  
  <!-- 柠檬表面纹理 -->
  <g fill="url(#textureGradient)" opacity="0.6">
    <circle cx="25" cy="30" r="2"/>
    <circle cx="35" cy="25" r="1.5"/>
    <circle cx="45" cy="22" r="2"/>
    <circle cx="55" cy="25" r="1.5"/>
    <circle cx="65" cy="30" r="2"/>
    <circle cx="70" cy="40" r="1.5"/>
    <circle cx="72" cy="50" r="2"/>
    <circle cx="70" cy="60" r="1.5"/>
    <circle cx="65" cy="68" r="2"/>
    <circle cx="55" cy="72" r="1.5"/>
    <circle cx="45" cy="74" r="2"/>
    <circle cx="35" cy="72" r="1.5"/>
    <circle cx="25" cy="68" r="2"/>
    <circle cx="20" cy="60" r="1.5"/>
    <circle cx="18" cy="50" r="2"/>
    <circle cx="20" cy="40" r="1.5"/>
    <circle cx="32" cy="40" r="1"/>
    <circle cx="42" cy="38" r="1.5"/>
    <circle cx="52" cy="40" r="1"/>
    <circle cx="62" cy="42" r="1.5"/>
    <circle cx="38" cy="55" r="1"/>
    <circle cx="48" cy="58" r="1.5"/>
    <circle cx="58" cy="55" r="1"/>
  </g>
  
  <!-- 主高光 -->
  <ellipse cx="35" cy="32" rx="12" ry="10" fill="url(#lemonHighlight)"/>
  
  <!-- 次要高光 -->
  <ellipse cx="58" cy="40" rx="6" ry="5" fill="url(#lemonHighlight)" opacity="0.5"/>
  
  <!-- 表面光泽 -->
  <ellipse cx="48" cy="48" rx="46" ry="46" fill="none" stroke="#FFFFFF" stroke-width="1" opacity="0.2"/>
</svg>