<svg width="200" height="200" viewBox="0 0 200 200" xmlns="http://www.w3.org/2000/svg">
  <defs>
    <!-- 柠檬主体渐变 -->
    <radialGradient id="lemonBody" cx="0.4" cy="0.3" r="0.8">
      <stop offset="0%" stop-color="#FFF59D"/>
      <stop offset="30%" stop-color="#FFEB3B"/>
      <stop offset="70%" stop-color="#F9A825"/>
      <stop offset="100%" stop-color="#E65100"/>
    </radialGradient>
    
    <!-- 柠檬高光 -->
    <radialGradient id="lemonHighlight" cx="0.3" cy="0.2" r="0.4">
      <stop offset="0%" stop-color="#FFFFFF" stop-opacity="0.8"/>
      <stop offset="50%" stop-color="#FFFFFF" stop-opacity="0.3"/>
      <stop offset="100%" stop-color="#FFFFFF" stop-opacity="0"/>
    </radialGradient>
    
    <!-- 柠檬阴影 -->
    <radialGradient id="lemonShadow" cx="0.7" cy="0.8" r="0.5">
      <stop offset="0%" stop-color="#E65100" stop-opacity="0"/>
      <stop offset="50%" stop-color="#BF360C" stop-opacity="0.3"/>
      <stop offset="100%" stop-color="#3E2723" stop-opacity="0.6"/>
    </radialGradient>
    
    <!-- 叶子渐变 -->
    <linearGradient id="leafGradient" x1="0%" y1="0%" x2="100%" y2="100%">
      <stop offset="0%" stop-color="#8BC34A"/>
      <stop offset="50%" stop-color="#689F38"/>
      <stop offset="100%" stop-color="#33691E"/>
    </linearGradient>
    
    <!-- 阴影滤镜 -->
    <filter id="dropShadow" x="-50%" y="-50%" width="200%" height="200%">
      <feDropShadow dx="3" dy="6" stdDeviation="4" flood-color="#000000" flood-opacity="0.3"/>
    </filter>
    
    <!-- 柠檬纹理 -->
    <pattern id="lemonTexture" patternUnits="userSpaceOnUse" width="8" height="8">
      <circle cx="4" cy="4" r="0.5" fill="#FFF176" opacity="0.3"/>
    </pattern>
  </defs>
  
  <!-- 柠檬主体 -->
  <ellipse cx="100" cy="110" rx="45" ry="60" fill="url(#lemonBody)" filter="url(#dropShadow)"/>
  
  <!-- 柠檬纹理 -->
  <ellipse cx="100" cy="110" rx="45" ry="60" fill="url(#lemonTexture)"/>
  
  <!-- 柠檬顶部突起 -->
  <ellipse cx="100" cy="50" rx="8" ry="12" fill="url(#lemonBody)"/>
  
  <!-- 柠檬阴影 -->
  <ellipse cx="100" cy="110" rx="45" ry="60" fill="url(#lemonShadow)"/>
  
  <!-- 柠檬高光 -->
  <ellipse cx="85" cy="80" rx="20" ry="25" fill="url(#lemonHighlight)"/>
  
  <!-- 小叶子 -->
  <path d="M95 45 Q90 35 85 40 Q90 50 95 45" fill="url(#leafGradient)"/>
  <path d="M105 45 Q110 35 115 40 Q110 50 105 45" fill="url(#leafGradient)"/>
  
  <!-- 叶子细节 -->
  <path d="M90 40 Q92 42 90 45" stroke="#4CAF50" stroke-width="0.5" fill="none"/>
  <path d="M110 40 Q108 42 110 45" stroke="#4CAF50" stroke-width="0.5" fill="none"/>
</svg>