<svg width="50" height="50" viewBox="0 0 50 50" xmlns="http://www.w3.org/2000/svg">
  <defs>
    <radialGradient id="lemonGradient" cx="0.3" cy="0.3" r="0.8">
      <stop offset="0%" stop-color="#FFF59D"/>
      <stop offset="50%" stop-color="#FFEB3B"/>
      <stop offset="100%" stop-color="#F57F17"/>
    </radialGradient>
    <radialGradient id="lemonHighlight" cx="0.25" cy="0.25" r="0.4">
      <stop offset="0%" stop-color="#FFFFFF" stop-opacity="0.8"/>
      <stop offset="100%" stop-color="#FFFFFF" stop-opacity="0"/>
    </radialGradient>
    <filter id="lemonShadow">
      <feDropShadow dx="1.5" dy="2" stdDeviation="1.2" flood-color="#000000" flood-opacity="0.2"/>
    </filter>
  </defs>
  
  <!-- 柠檬主体 - 椭圆形状 -->
  <ellipse cx="25" cy="25" rx="20" ry="18" 
           fill="url(#lemonGradient)" 
           stroke="#F57F17" 
           stroke-width="0.5"
           filter="url(#lemonShadow)"/>
  
  <!-- 高光效果 -->
  <ellipse cx="20" cy="20" rx="5" ry="6" fill="url(#lemonHighlight)"/>
  
  <!-- 柠檬表面纹理 - 模拟柠檬皮的凹凸质感 -->
  <circle cx="15" cy="18" r="1.2" fill="#FBC02D" opacity="0.4"/>
  <circle cx="35" cy="22" r="1.5" fill="#FBC02D" opacity="0.4"/>
  <circle cx="22" cy="32" r="1.3" fill="#FBC02D" opacity="0.4"/>
  <circle cx="32" cy="35" r="1.1" fill="#FBC02D" opacity="0.4"/>
  <circle cx="18" cy="35" r="1" fill="#FBC02D" opacity="0.4"/>
  <circle cx="38" cy="30" r="0.9" fill="#FBC02D" opacity="0.4"/>
  
  <!-- 更多细小纹理点 -->
  <circle cx="28" cy="28" r="0.8" fill="#F9A825" opacity="0.3"/>
  <circle cx="20" cy="28" r="0.7" fill="#F9A825" opacity="0.3"/>
  <circle cx="30" cy="20" r="0.6" fill="#F9A825" opacity="0.3"/>
  <circle cx="25" cy="15" r="0.5" fill="#F9A825" opacity="0.3"/>
  <circle cx="12" cy="25" r="0.8" fill="#F9A825" opacity="0.3"/>
  <circle cx="38" cy="25" r="0.7" fill="#F9A825" opacity="0.3"/>
  <circle cx="25" cy="38" r="0.6" fill="#F9A825" opacity="0.3"/>
  
  <!-- 柠檬顶部和底部的特征性尖端 -->
  <ellipse cx="25" cy="7" rx="3" ry="2" fill="#F57F17" opacity="0.6"/>
  <ellipse cx="25" cy="43" rx="2.5" ry="1.5" fill="#F57F17" opacity="0.6"/>
  
  <!-- 柠檬表面光泽线条 -->
  <path d="M12 22 Q25 20 38 24" stroke="#FFFDE7" stroke-width="1.2" fill="none" opacity="0.5"/>
  <path d="M15 30 Q25 28 35 32" stroke="#FFFDE7" stroke-width="0.8" fill="none" opacity="0.4"/>
  
  <!-- 柠檬叶子（如果有的话） -->
  <g filter="url(#lemonShadow)">
    <ellipse cx="28" cy="8" rx="3" ry="1.5" fill="#4CAF50" transform="rotate(25 28 8)"/>
    <ellipse cx="22" cy="8" rx="2.5" ry="1.2" fill="#66BB6A" transform="rotate(-25 22 8)"/>
  </g>
  
  <!-- 叶子纹理 -->
  <path d="M26 7 Q28 6 30 8" stroke="#2E7D32" stroke-width="0.3" fill="none"/>
  <path d="M24 7 Q22 6 20 8" stroke="#388E3C" stroke-width="0.3" fill="none"/>
</svg>