<svg xmlns="http://www.w3.org/2000/svg" viewBox="0 0 200 200">
  <defs>
    <radialGradient id="mangoGradient" cx="0.3" cy="0.35" r="0.8">
      <stop offset="0%" style="stop-color:#FFE066;stop-opacity:1" />
      <stop offset="30%" style="stop-color:#FFC04D;stop-opacity:1" />
      <stop offset="70%" style="stop-color:#FFA72B;stop-opacity:1" />
      <stop offset="100%" style="stop-color:#E8890B;stop-opacity:1" />
    </radialGradient>
    
    <radialGradient id="mangoRed" cx="0.7" cy="0.3" r="0.5">
      <stop offset="0%" style="stop-color:#FF6B6B;stop-opacity:0.5" />
      <stop offset="60%" style="stop-color:#FF4757;stop-opacity:0.2" />
      <stop offset="100%" style="stop-color:#FF4757;stop-opacity:0" />
    </radialGradient>
    
    <radialGradient id="mangoHighlight" cx="0.25" cy="0.3" r="0.4">
      <stop offset="0%" style="stop-color:#FFFFFF;stop-opacity:0.8" />
      <stop offset="50%" style="stop-color:#FFFFFF;stop-opacity:0.3" />
      <stop offset="100%" style="stop-color:#FFFFFF;stop-opacity:0" />
    </radialGradient>
    
    <linearGradient id="stemGradient" x1="0%" y1="0%" x2="100%" y2="100%">
      <stop offset="0%" style="stop-color:#8B4513;stop-opacity:1" />
      <stop offset="100%" style="stop-color:#654321;stop-opacity:1" />
    </linearGradient>
  </defs>
  
  <!-- Main mango body -->
  <path d="M 100 30 Q 75 25 60 45 Q 50 65 55 90 Q 60 115 75 135 Q 90 150 105 145 Q 120 140 130 125 Q 140 110 145 90 Q 150 70 140 50 Q 125 30 100 30 Z" 
        fill="url(#mangoGradient)" stroke="#E8890B" stroke-width="2"/>
  
  <!-- Mango red blush -->
  <ellipse cx="120" cy="70" rx="20" ry="35" fill="url(#mangoRed)"/>
  
  <!-- Mango stem -->
  <path d="M 95 25 Q 90 15 85 10 Q 90 5 100 5 Q 110 5 115 10 Q 110 15 105 25 Q 100 30 95 25 Z" 
        fill="url(#stemGradient)" stroke="#654321" stroke-width="1"/>
  
  <!-- Small stem tip -->
  <circle cx="100" cy="8" r="2" fill="#654321"/>
  
  <!-- Highlight -->
  <ellipse cx="85" cy="60" rx="25" ry="35" fill="url(#mangoHighlight)"/>
  
  <!-- Surface texture lines -->
  <g opacity="0.3">
    <path d="M 70 60 Q 80 55 90 60" stroke="#E8890B" stroke-width="1.5" fill="none"/>
    <path d="M 75 80 Q 85 75 95 80" stroke="#E8890B" stroke-width="1.5" fill="none"/>
    <path d="M 80 100 Q 90 95 100 100" stroke="#E8890B" stroke-width="1.5" fill="none"/>
    <path d="M 85 120 Q 95 115 105 120" stroke="#E8890B" stroke-width="1.5" fill="none"/>
  </g>
  
  <!-- Small texture dots -->
  <circle cx="90" cy="70" r="1" fill="#FFA72B" opacity="0.7"/>
  <circle cx="110" cy="85" r="1" fill="#FFA72B" opacity="0.7"/>
  <circle cx="105" cy="105" r="1" fill="#FFA72B" opacity="0.7"/>
  <circle cx="85" cy="110" r="1" fill="#FFA72B" opacity="0.7"/>
</svg>