<svg width="128" height="128" viewBox="0 0 128 128" xmlns="http://www.w3.org/2000/svg">
  <defs>
    <radialGradient id="mangoGrad" cx="0.35" cy="0.3" r="0.8">
      <stop offset="0%" stop-color="#FFF176"/>
      <stop offset="30%" stop-color="#FFB74D"/>
      <stop offset="70%" stop-color="#FF9800"/>
      <stop offset="100%" stop-color="#F57C00"/>
    </radialGradient>
    <radialGradient id="highlight" cx="0.25" cy="0.25" r="0.3">
      <stop offset="0%" stop-color="#FFFFFF" stop-opacity="0.7"/>
      <stop offset="100%" stop-color="#FFFFFF" stop-opacity="0"/>
    </radialGradient>
  </defs>
  
  <!-- 芒果主体 - 椭圆形，填满画布 -->
  <path d="M64 8 C84 8 104 20 116 40 C124 56 124 72 116 88 C104 108 84 120 64 120 C44 120 24 108 12 88 C4 72 4 56 12 40 C24 20 44 8 64 8 Z" 
        fill="url(#mangoGrad)" stroke="#F57C00" stroke-width="1"/>
  
  <!-- 芒果茎 -->
  <rect x="63" y="4" width="2" height="8" fill="#8D6E63" rx="1"/>
  
  <!-- 高光效果 -->
  <ellipse cx="48" cy="40" rx="16" ry="20" fill="url(#highlight)"/>
  
  <!-- 芒果表面纹理 -->
  <g fill="#F57C00" opacity="0.2">
    <circle cx="40" cy="56" r="2"/>
    <circle cx="72" cy="52" r="2"/>
    <circle cx="52" cy="80" r="2"/>
    <circle cx="84" cy="76" r="2"/>
    <circle cx="36" cy="84" r="2"/>
    <circle cx="88" cy="96" r="2"/>
    <circle cx="56" cy="100" r="2"/>
    <circle cx="76" cy="32" r="2"/>
  </g>
  
  <!-- 表面光泽 -->
  <path d="M64 8 C84 8 104 20 116 40 C124 56 124 72 116 88 C104 108 84 120 64 120 C44 120 24 108 12 88 C4 72 4 56 12 40 C24 20 44 8 64 8 Z" 
        fill="#FFF8E1" opacity="0.15"/>
</svg>