<svg width="128" height="128" viewBox="0 0 128 128" xmlns="http://www.w3.org/2000/svg">
  <defs>
    <!-- 芒果主体渐变 -->
    <radialGradient id="mangoGradient" cx="0.3" cy="0.3" r="0.8">
      <stop offset="0%" stop-color="#FFF59D"/>
      <stop offset="30%" stop-color="#FFEB3B"/>
      <stop offset="60%" stop-color="#FF9800"/>
      <stop offset="100%" stop-color="#E65100"/>
    </radialGradient>
    
    <!-- 茎渐变 -->
    <linearGradient id="stemGradient" x1="0%" y1="0%" x2="0%" y2="100%">
      <stop offset="0%" stop-color="#66BB6A"/>
      <stop offset="100%" stop-color="#388E3C"/>
    </linearGradient>
    
    <!-- 高光渐变 -->
    <radialGradient id="mangoHighlight" cx="0.35" cy="0.25" r="0.4">
      <stop offset="0%" stop-color="#FFFFFF" stop-opacity="0.8"/>
      <stop offset="100%" stop-color="#FFFFFF" stop-opacity="0"/>
    </radialGradient>
    
    <!-- 红晕渐变 -->
    <radialGradient id="blushGradient" cx="0.7" cy="0.4" r="0.3">
      <stop offset="0%" stop-color="#FF5722" stop-opacity="0.6"/>
      <stop offset="100%" stop-color="#FF5722" stop-opacity="0"/>
    </radialGradient>
  </defs>
  
  <!-- 芒果主体 - 椭圆形，填满画布 -->
  <path d="M64 8 
           C40 8, 8 25, 8 50 
           C8 75, 25 100, 50 115 
           C55 118, 60 120, 64 120 
           C68 120, 73 118, 78 115 
           C103 100, 120 75, 120 50 
           C120 25, 88 8, 64 8 Z" 
        fill="url(#mangoGradient)"/>
  
  <!-- 芒果红晕 -->
  <ellipse cx="85" cy="45" rx="25" ry="35" fill="url(#blushGradient)"/>
  
  <!-- 芒果茎 -->
  <rect x="62" y="2" width="4" height="15" rx="2" fill="url(#stemGradient)"/>
  
  <!-- 芒果叶子 -->
  <path d="M66 12 
           Q72 8, 78 10 
           Q82 12, 80 16 
           Q78 18, 74 16 
           Q70 14, 66 16 Z" 
        fill="url(#stemGradient)"/>
  
  <!-- 主高光 -->
  <ellipse cx="45" cy="35" rx="18" ry="22" fill="url(#mangoHighlight)"/>
  
  <!-- 次要高光 -->
  <ellipse cx="75" cy="50" rx="9" ry="11" fill="url(#mangoHighlight)" opacity="0.5"/>
  
  <!-- 小高光点 -->
  <ellipse cx="55" cy="70" rx="4" ry="5" fill="url(#mangoHighlight)" opacity="0.6"/>
  
  <!-- 表面光泽 -->
  <path d="M64 8 
           C40 8, 8 25, 8 50 
           C8 75, 25 100, 50 115 
           C55 118, 60 120, 64 120 
           C68 120, 73 118, 78 115 
           C103 100, 120 75, 120 50 
           C120 25, 88 8, 64 8 Z" 
        fill="none" stroke="#FFFFFF" stroke-width="1" opacity="0.3"/>
</svg>