<svg width="128" height="128" viewBox="0 0 128 128" xmlns="http://www.w3.org/2000/svg">
  <defs>
    <!-- 橙子主体渐变 -->
    <radialGradient id="orangeGradient" cx="0.3" cy="0.3" r="0.8">
      <stop offset="0%" stop-color="#FFB74D"/>
      <stop offset="30%" stop-color="#FF9800"/>
      <stop offset="60%" stop-color="#F57C00"/>
      <stop offset="100%" stop-color="#E65100"/>
    </radialGradient>
    
    <!-- 高光渐变 -->
    <radialGradient id="orangeHighlight" cx="0.35" cy="0.25" r="0.4">
      <stop offset="0%" stop-color="#FFFFFF" stop-opacity="0.8"/>
      <stop offset="100%" stop-color="#FFFFFF" stop-opacity="0"/>
    </radialGradient>
    
    <!-- 纹理渐变 -->
    <radialGradient id="textureGradient" cx="0.5" cy="0.5" r="0.5">
      <stop offset="0%" stop-color="#FF9800" stop-opacity="0.3"/>
      <stop offset="100%" stop-color="#F57C00" stop-opacity="0.1"/>
    </radialGradient>
  </defs>
  
  <!-- 橙子主体 - 圆形，填满画布 -->
  <circle cx="64" cy="64" r="60" fill="url(#orangeGradient)"/>
  
  <!-- 橙子表面纹理 -->
  <g fill="url(#textureGradient)" opacity="0.6">
    <circle cx="30" cy="35" r="3"/>
    <circle cx="45" cy="28" r="2.5"/>
    <circle cx="60" cy="25" r="3"/>
    <circle cx="75" cy="28" r="2.5"/>
    <circle cx="90" cy="35" r="3"/>
    <circle cx="98" cy="50" r="2.5"/>
    <circle cx="100" cy="65" r="3"/>
    <circle cx="98" cy="80" r="2.5"/>
    <circle cx="90" cy="95" r="3"/>
    <circle cx="75" cy="102" r="2.5"/>
    <circle cx="60" cy="105" r="3"/>
    <circle cx="45" cy="102" r="2.5"/>
    <circle cx="30" cy="95" r="3"/>
    <circle cx="22" cy="80" r="2.5"/>
    <circle cx="20" cy="65" r="3"/>
    <circle cx="22" cy="50" r="2.5"/>
    <circle cx="40" cy="50" r="2"/>
    <circle cx="55" cy="45" r="2.5"/>
    <circle cx="70" cy="50" r="2"/>
    <circle cx="85" cy="55" r="2.5"/>
    <circle cx="50" cy="70" r="2"/>
    <circle cx="65" cy="75" r="2.5"/>
    <circle cx="80" cy="70" r="2"/>
    <circle cx="45" cy="85" r="2"/>
    <circle cx="75" cy="85" r="2"/>
  </g>
  
  <!-- 橙子表面凹点纹理 -->
  <g fill="#E65100" opacity="0.4">
    <circle cx="35" cy="40" r="1"/>
    <circle cx="50" cy="35" r="1"/>
    <circle cx="65" cy="32" r="1"/>
    <circle cx="80" cy="35" r="1"/>
    <circle cx="95" cy="40" r="1"/>
    <circle cx="40" cy="60" r="1"/>
    <circle cx="60" cy="55" r="1"/>
    <circle cx="80" cy="60" r="1"/>
    <circle cx="35" cy="80" r="1"/>
    <circle cx="55" cy="85" r="1"/>
    <circle cx="75" cy="80" r="1"/>
    <circle cx="95" cy="85" r="1"/>
  </g>
  
  <!-- 主高光 -->
  <ellipse cx="45" cy="40" rx="18" ry="15" fill="url(#orangeHighlight)"/>
  
  <!-- 次要高光 -->
  <ellipse cx="80" cy="55" rx="9" ry="7" fill="url(#orangeHighlight)" opacity="0.5"/>
  
  <!-- 表面光泽 -->
  <circle cx="64" cy="64" r="60" fill="none" stroke="#FFFFFF" stroke-width="1" opacity="0.2"/>
</svg>