<svg width="60" height="60" viewBox="0 0 60 60" xmlns="http://www.w3.org/2000/svg">
  <defs>
    <!-- 橙子主体渐变 -->
    <radialGradient id="orangeGradient" cx="0.25" cy="0.2" r="0.9">
      <stop offset="0%" stop-color="#FFE0B2"/>
      <stop offset="20%" stop-color="#FFCC02"/>
      <stop offset="50%" stop-color="#FF9800"/>
      <stop offset="80%" stop-color="#F57C00"/>
      <stop offset="100%" stop-color="#E65100"/>
    </radialGradient>
    
    <!-- 高光渐变 -->
    <radialGradient id="orangeHighlight" cx="0.2" cy="0.15" r="0.4">
      <stop offset="0%" stop-color="#FFFFFF" stop-opacity="0.8"/>
      <stop offset="50%" stop-color="#FFFFFF" stop-opacity="0.3"/>
      <stop offset="100%" stop-color="#FFFFFF" stop-opacity="0"/>
    </radialGradient>
    
    <!-- 阴影渐变 -->
    <radialGradient id="orangeShadow" cx="0.8" cy="0.85" r="0.5">
      <stop offset="0%" stop-color="#BF360C" stop-opacity="0.7"/>
      <stop offset="100%" stop-color="#BF360C" stop-opacity="0"/>
    </radialGradient>
    
    <!-- 叶子渐变 -->
    <linearGradient id="leafGradient" x1="0" y1="0" x2="1" y2="1">
      <stop offset="0%" stop-color="#A5D6A7"/>
      <stop offset="50%" stop-color="#4CAF50"/>
      <stop offset="100%" stop-color="#2E7D32"/>
    </linearGradient>
    
    <!-- 阴影滤镜 -->
    <filter id="dropShadow" x="-50%" y="-50%" width="200%" height="200%">
      <feDropShadow dx="2" dy="3" stdDeviation="2" flood-color="#000000" flood-opacity="0.3"/>
    </filter>
  </defs>
  
  <!-- 橙子主体 -->
  <circle cx="30" cy="32" r="24" 
          fill="url(#orangeGradient)" 
          stroke="#BF360C" 
          stroke-width="1"
          filter="url(#dropShadow)"/>
  
  <!-- 橙子阴影部分 -->
  <ellipse cx="42" cy="44" rx="10" ry="8" fill="url(#orangeShadow)"/>
  
  <!-- 主高光 -->
  <ellipse cx="22" cy="24" rx="6" ry="8" fill="url(#orangeHighlight)"/>
  
  <!-- 次高光 -->
  <ellipse cx="19" cy="30" rx="2.5" ry="3.5" fill="#FFFFFF" opacity="0.5"/>
  
  <!-- 橙皮纹理 - 小凹点 -->
  <g fill="#E65100" opacity="0.4">
    <circle cx="20" cy="28" r="1"/>
    <circle cx="35" cy="25" r="1.2"/>
    <circle cx="25" cy="38" r="0.8"/>
    <circle cx="40" cy="35" r="1"/>
    <circle cx="28" cy="45" r="0.9"/>
    <circle cx="45" cy="28" r="0.7"/>
    <circle cx="15" cy="35" r="0.8"/>
    <circle cx="38" cy="45" r="1.1"/>
    <circle cx="32" cy="20" r="0.9"/>
    <circle cx="18" cy="42" r="0.7"/>
  </g>
  
  <!-- 更多细小纹理点 -->
  <g fill="#F57C00" opacity="0.3">
    <circle cx="24" cy="32" r="0.5"/>
    <circle cx="36" cy="30" r="0.6"/>
    <circle cx="30" cy="40" r="0.4"/>
    <circle cx="42" cy="32" r="0.5"/>
    <circle cx="26" cy="22" r="0.4"/>
    <circle cx="16" cy="30" r="0.5"/>
    <circle cx="34" cy="48" r="0.6"/>
    <circle cx="44" cy="40" r="0.4"/>
  </g>
  
  <!-- 橙子顶部凹陷 -->
  <circle cx="30" cy="8" r="3" 
          fill="#E65100" 
          stroke="#BF360C" 
          stroke-width="0.5"/>
  
  <!-- 橙子柄 -->
  <path d="M30 8 Q30 5 30 2" 
        stroke="#5D4037" 
        stroke-width="2.5" 
        fill="none" 
        stroke-linecap="round"
        filter="url(#dropShadow)"/>
  
  <!-- 叶子 -->
  <path d="M32 8 Q36 4 40 8 Q38 12 32 10 Q30 9 32 8" 
        fill="url(#leafGradient)"
        stroke="#1B5E20"
        stroke-width="0.5"
        filter="url(#dropShadow)"/>
  
  <!-- 叶子纹理 -->
  <path d="M34 8 Q36 6 38 9" 
        stroke="#1B5E20" 
        stroke-width="0.8" 
        fill="none" 
        opacity="0.7"/>
  
  <!-- 橙子表面光泽 -->
  <path d="M12 26 Q30 20 48 28" 
        stroke="#FFE0B2" 
        stroke-width="1.2" 
        fill="none" 
        opacity="0.4"/>
</svg>