<svg width="96" height="96" viewBox="0 0 96 96" xmlns="http://www.w3.org/2000/svg">
  <defs>
    <radialGradient id="peachGrad" cx="0.35" cy="0.3" r="0.8">
      <stop offset="0%" stop-color="#FFCCCB"/>
      <stop offset="30%" stop-color="#FFB347"/>
      <stop offset="70%" stop-color="#FF8C69"/>
      <stop offset="100%" stop-color="#CD5C5C"/>
    </radialGradient>
    <radialGradient id="highlight" cx="0.25" cy="0.25" r="0.3">
      <stop offset="0%" stop-color="#FFFFFF" stop-opacity="0.7"/>
      <stop offset="100%" stop-color="#FFFFFF" stop-opacity="0"/>
    </radialGradient>
  </defs>
  
  <!-- 桃子主体 - 心形，填满画布 -->
  <path d="M48 88 C32 76 16 60 16 44 C16 28 28 16 44 20 C46 22 48 24 48 24 C48 24 50 22 52 20 C68 16 80 28 80 44 C80 60 64 76 48 88 Z" 
        fill="url(#peachGrad)" stroke="#CD5C5C" stroke-width="1"/>
  
  <!-- 桃子凹槽 -->
  <path d="M48 24 Q46 40 48 56 Q50 40 48 24" stroke="#CD5C5C" stroke-width="2" fill="none"/>
  
  <!-- 桃子茎 -->
  <rect x="47" y="8" width="2" height="12" fill="#8D6E63" rx="1"/>
  
  <!-- 叶子 -->
  <ellipse cx="54" cy="12" rx="6" ry="3" fill="#4CAF50" transform="rotate(30 54 12)"/>
  
  <!-- 高光效果 -->
  <ellipse cx="36" cy="36" rx="12" ry="16" fill="url(#highlight)"/>
  
  <!-- 桃子绒毛效果 -->
  <g fill="#FFFFFF" opacity="0.3">
    <circle cx="32" cy="48" r="0.5"/>
    <circle cx="56" cy="44" r="0.5"/>
    <circle cx="40" cy="64" r="0.5"/>
    <circle cx="64" cy="60" r="0.5"/>
    <circle cx="28" cy="68" r="0.5"/>
    <circle cx="68" cy="72" r="0.5"/>
    <circle cx="44" cy="76" r="0.5"/>
    <circle cx="60" cy="32" r="0.5"/>
  </g>
  
  <!-- 表面光泽 -->
  <path d="M48 88 C32 76 16 60 16 44 C16 28 28 16 44 20 C46 22 48 24 48 24 C48 24 50 22 52 20 C68 16 80 28 80 44 C80 60 64 76 48 88 Z" 
        fill="#FFF5EE" opacity="0.2"/>
</svg>