<svg xmlns="http://www.w3.org/2000/svg" viewBox="0 0 200 200">
  <defs>
    <radialGradient id="peachGradient" cx="0.3" cy="0.3" r="0.8">
      <stop offset="0%" style="stop-color:#FFCCCB;stop-opacity:1" />
      <stop offset="30%" style="stop-color:#FFB6C1;stop-opacity:1" />
      <stop offset="70%" style="stop-color:#FF69B4;stop-opacity:1" />
      <stop offset="100%" style="stop-color:#FF1493;stop-opacity:1" />
    </radialGradient>
    <radialGradient id="peachHighlight" cx="0.25" cy="0.25" r="0.4">
      <stop offset="0%" style="stop-color:#FFFFFF;stop-opacity:0.8" />
      <stop offset="100%" style="stop-color:#FFFFFF;stop-opacity:0" />
    </radialGradient>
    <linearGradient id="leafGradient" x1="0%" y1="0%" x2="100%" y2="100%">
      <stop offset="0%" style="stop-color:#90EE90;stop-opacity:1" />
      <stop offset="100%" style="stop-color:#228B22;stop-opacity:1" />
    </linearGradient>
  </defs>
  
  <!-- Main peach body -->
  <path d="M 100 50 Q 140 60 150 100 Q 155 140 130 160 Q 100 180 70 160 Q 45 140 50 100 Q 60 60 100 50 Z" 
        fill="url(#peachGradient)" stroke="#FF1493" stroke-width="2"/>
  
  <!-- Peach crease -->
  <path d="M 100 50 Q 105 80 110 110 Q 115 140 120 160" 
        fill="none" stroke="#FF69B4" stroke-width="3" opacity="0.6"/>
  
  <!-- Leaf -->
  <path d="M 95 45 Q 85 35 75 40 Q 70 45 75 55 Q 85 50 95 45 Z" 
        fill="url(#leafGradient)" stroke="#228B22" stroke-width="1"/>
  
  <!-- Leaf vein -->
  <path d="M 90 42 Q 80 45 75 50" 
        fill="none" stroke="#006400" stroke-width="1" opacity="0.7"/>
  
  <!-- Highlight -->
  <ellipse cx="85" cy="80" rx="25" ry="30" fill="url(#peachHighlight)"/>
  
  <!-- Small texture -->
  <circle cx="90" cy="100" r="1" fill="#FFB6C1" opacity="0.8"/>
  <circle cx="110" cy="95" r="1" fill="#FFB6C1" opacity="0.8"/>
  <circle cx="105" cy="120" r="1" fill="#FFB6C1" opacity="0.8"/>
</svg>