<svg xmlns="http://www.w3.org/2000/svg" viewBox="0 0 200 200">
  <defs>
    <radialGradient id="pearGradient" cx="0.3" cy="0.4" r="0.8">
      <stop offset="0%" style="stop-color:#FFFF99;stop-opacity:1" />
      <stop offset="30%" style="stop-color:#FFFF00;stop-opacity:1" />
      <stop offset="70%" style="stop-color:#FFD700;stop-opacity:1" />
      <stop offset="100%" style="stop-color:#FFA500;stop-opacity:1" />
    </radialGradient>
    <radialGradient id="pearHighlight" cx="0.25" cy="0.3" r="0.4">
      <stop offset="0%" style="stop-color:#FFFFFF;stop-opacity:0.7" />
      <stop offset="100%" style="stop-color:#FFFFFF;stop-opacity:0" />
    </radialGradient>
    <linearGradient id="stemGradient" x1="0%" y1="0%" x2="100%" y2="100%">
      <stop offset="0%" style="stop-color:#8B4513;stop-opacity:1" />
      <stop offset="100%" style="stop-color:#654321;stop-opacity:1" />
    </linearGradient>
    <linearGradient id="leafGradient" x1="0%" y1="0%" x2="100%" y2="100%">
      <stop offset="0%" style="stop-color:#90EE90;stop-opacity:1" />
      <stop offset="100%" style="stop-color:#228B22;stop-opacity:1" />
    </linearGradient>
  </defs>
  
  <!-- Main pear body -->
  <path d="M 100 60 Q 85 55 75 70 Q 65 85 70 110 Q 75 135 85 150 Q 100 170 115 150 Q 125 135 130 110 Q 135 85 125 70 Q 115 55 100 60 Z" 
        fill="url(#pearGradient)" stroke="#FFD700" stroke-width="2"/>
  
  <!-- Pear neck -->
  <path d="M 100 60 Q 95 45 90 35 Q 95 25 105 25 Q 115 25 110 35 Q 105 45 100 60 Z" 
        fill="url(#pearGradient)" stroke="#FFD700" stroke-width="2"/>
  
  <!-- Stem -->
  <rect x="98" y="20" width="4" height="8" fill="url(#stemGradient)" rx="2"/>
  
  <!-- Leaf -->
  <path d="M 105 25 Q 115 20 120 25 Q 125 30 120 35 Q 110 32 105 25 Z" 
        fill="url(#leafGradient)" stroke="#228B22" stroke-width="1"/>
  
  <!-- Leaf vein -->
  <path d="M 110 25 Q 115 28 118 32" 
        fill="none" stroke="#006400" stroke-width="1" opacity="0.7"/>
  
  <!-- Highlight -->
  <ellipse cx="85" cy="80" rx="20" ry="35" fill="url(#pearHighlight)"/>
  
  <!-- Small texture dots -->
  <circle cx="90" cy="90" r="1" fill="#FFD700" opacity="0.8"/>
  <circle cx="110" cy="85" r="1" fill="#FFD700" opacity="0.8"/>
  <circle cx="105" cy="110" r="1" fill="#FFD700" opacity="0.8"/>
  <circle cx="85" cy="120" r="1" fill="#FFD700" opacity="0.8"/>
  <circle cx="115" cy="125" r="1" fill="#FFD700" opacity="0.8"/>
</svg>