<svg width="96" height="96" viewBox="0 0 96 96" xmlns="http://www.w3.org/2000/svg">
  <defs>
    <radialGradient id="pearGrad" cx="0.35" cy="0.3" r="0.8">
      <stop offset="0%" stop-color="#F0F8B4"/>
      <stop offset="30%" stop-color="#CDDC39"/>
      <stop offset="70%" stop-color="#8BC34A"/>
      <stop offset="100%" stop-color="#689F38"/>
    </radialGradient>
    <radialGradient id="highlight" cx="0.25" cy="0.25" r="0.3">
      <stop offset="0%" stop-color="#FFFFFF" stop-opacity="0.7"/>
      <stop offset="100%" stop-color="#FFFFFF" stop-opacity="0"/>
    </radialGradient>
  </defs>
  
  <!-- 梨子主体 - 梨形，填满画布 -->
  <path d="M48 88 C32 88 20 76 20 60 C20 48 24 36 32 28 C36 24 40 20 44 18 C46 16 48 14 48 14 C48 14 50 16 52 18 C56 20 60 24 64 28 C72 36 76 48 76 60 C76 76 64 88 48 88 Z" 
        fill="url(#pearGrad)" stroke="#689F38" stroke-width="1"/>
  
  <!-- 梨子茎 -->
  <rect x="47" y="4" width="2" height="12" fill="#8D6E63" rx="1"/>
  
  <!-- 叶子 -->
  <ellipse cx="54" cy="8" rx="6" ry="3" fill="#4CAF50" transform="rotate(30 54 8)"/>
  
  <!-- 高光效果 -->
  <ellipse cx="36" cy="32" rx="12" ry="16" fill="url(#highlight)"/>
  
  <!-- 梨子表面斑点 -->
  <g fill="#689F38" opacity="0.3">
    <circle cx="32" cy="44" r="1"/>
    <circle cx="56" cy="40" r="1"/>
    <circle cx="40" cy="64" r="1"/>
    <circle cx="64" cy="60" r="1"/>
    <circle cx="28" cy="68" r="1"/>
    <circle cx="68" cy="72" r="1"/>
    <circle cx="44" cy="76" r="1"/>
    <circle cx="60" cy="28" r="1"/>
  </g>
  
  <!-- 表面光泽 -->
  <path d="M48 88 C32 88 20 76 20 60 C20 48 24 36 32 28 C36 24 40 20 44 18 C46 16 48 14 48 14 C48 14 50 16 52 18 C56 20 60 24 64 28 C72 36 76 48 76 60 C76 76 64 88 48 88 Z" 
        fill="#F9FBE7" opacity="0.2"/>
</svg>