<svg width="128" height="128" viewBox="0 0 128 128" xmlns="http://www.w3.org/2000/svg">
  <defs>
    <!-- 梨子主体渐变 -->
    <radialGradient id="pearGradient" cx="0.3" cy="0.6" r="0.8">
      <stop offset="0%" stop-color="#F1F8E9"/>
      <stop offset="30%" stop-color="#C5E1A5"/>
      <stop offset="60%" stop-color="#8BC34A"/>
      <stop offset="100%" stop-color="#558B2F"/>
    </radialGradient>
    
    <!-- 茎渐变 -->
    <linearGradient id="stemGradient" x1="0%" y1="0%" x2="0%" y2="100%">
      <stop offset="0%" stop-color="#66BB6A"/>
      <stop offset="100%" stop-color="#388E3C"/>
    </linearGradient>
    
    <!-- 高光渐变 -->
    <radialGradient id="pearHighlight" cx="0.35" cy="0.3" r="0.4">
      <stop offset="0%" stop-color="#FFFFFF" stop-opacity="0.8"/>
      <stop offset="100%" stop-color="#FFFFFF" stop-opacity="0"/>
    </radialGradient>
  </defs>
  
  <!-- 梨子主体 - 梨形，填满画布 -->
  <path d="M64 8 
           C52 8, 42 18, 42 30 
           C42 35, 44 40, 48 44 
           C40 48, 20 60, 20 85 
           C20 105, 36 120, 64 120 
           C92 120, 108 105, 108 85 
           C108 60, 88 48, 80 44 
           C84 40, 86 35, 86 30 
           C86 18, 76 8, 64 8 Z" 
        fill="url(#pearGradient)"/>
  
  <!-- 梨子茎 -->
  <rect x="62" y="2" width="4" height="18" rx="2" fill="url(#stemGradient)"/>
  
  <!-- 梨子叶子 -->
  <path d="M66 14 
           Q72 10, 78 12 
           Q82 14, 80 18 
           Q78 20, 74 18 
           Q70 16, 66 18 Z" 
        fill="url(#stemGradient)"/>
  
  <!-- 梨子表面斑点 -->
  <g fill="#558B2F" opacity="0.3">
    <circle cx="35" cy="50" r="2"/>
    <circle cx="50" cy="45" r="1.5"/>
    <circle cx="65" cy="42" r="2"/>
    <circle cx="80" cy="48" r="1.5"/>
    <circle cx="90" cy="55" r="2"/>
    <circle cx="40" cy="70" r="1.5"/>
    <circle cx="60" cy="65" r="2"/>
    <circle cx="85" cy="72" r="1.5"/>
    <circle cx="30" cy="85" r="2"/>
    <circle cx="55" cy="88" r="1.5"/>
    <circle cx="75" cy="85" r="2"/>
    <circle cx="95" cy="88" r="1.5"/>
    <circle cx="45" cy="100" r="2"/>
    <circle cx="70" cy="105" r="1.5"/>
  </g>
  
  <!-- 主高光 -->
  <ellipse cx="48" cy="35" rx="14" ry="18" fill="url(#pearHighlight)"/>
  
  <!-- 次要高光 -->
  <ellipse cx="75" cy="50" rx="7" ry="9" fill="url(#pearHighlight)" opacity="0.5"/>
  
  <!-- 表面光泽 -->
  <path d="M64 8 
           C52 8, 42 18, 42 30 
           C42 35, 44 40, 48 44 
           C40 48, 20 60, 20 85 
           C20 105, 36 120, 64 120 
           C92 120, 108 105, 108 85 
           C108 60, 88 48, 80 44 
           C84 40, 86 35, 86 30 
           C86 18, 76 8, 64 8 Z" 
        fill="none" stroke="#FFFFFF" stroke-width="1" opacity="0.2"/>
</svg>