<svg width="192" height="192" viewBox="0 0 192 192" xmlns="http://www.w3.org/2000/svg">
  <defs>
    <!-- 菠萝主体渐变 -->
    <radialGradient id="pineappleGradient" cx="0.3" cy="0.5" r="0.8">
      <stop offset="0%" stop-color="#FFF59D"/>
      <stop offset="30%" stop-color="#FFEB3B"/>
      <stop offset="60%" stop-color="#FF9800"/>
      <stop offset="100%" stop-color="#E65100"/>
    </radialGradient>
    
    <!-- 叶冠渐变 -->
    <linearGradient id="leafGradient" x1="0%" y1="0%" x2="0%" y2="100%">
      <stop offset="0%" stop-color="#66BB6A"/>
      <stop offset="100%" stop-color="#388E3C"/>
    </linearGradient>
    
    <!-- 高光渐变 -->
    <radialGradient id="pineappleHighlight" cx="0.35" cy="0.3" r="0.4">
      <stop offset="0%" stop-color="#FFFFFF" stop-opacity="0.8"/>
      <stop offset="100%" stop-color="#FFFFFF" stop-opacity="0"/>
    </radialGradient>
    
    <!-- 纹理渐变 -->
    <radialGradient id="textureGradient" cx="0.5" cy="0.5" r="0.5">
      <stop offset="0%" stop-color="#FF9800" stop-opacity="0.4"/>
      <stop offset="100%" stop-color="#E65100" stop-opacity="0.2"/>
    </radialGradient>
  </defs>
  
  <!-- 菠萝主体 - 椭圆形，填满画布 -->
  <ellipse cx="96" cy="120" rx="80" ry="70" fill="url(#pineappleGradient)"/>
  
  <!-- 菠萝菱形纹理 -->
  <g stroke="#E65100" stroke-width="2" fill="url(#textureGradient)" opacity="0.6">
    <!-- 第一行 -->
    <path d="M40 70 L56 60 L72 70 L56 80 Z"/>
    <path d="M72 70 L88 60 L104 70 L88 80 Z"/>
    <path d="M104 70 L120 60 L136 70 L120 80 Z"/>
    <path d="M136 70 L152 60 L168 70 L152 80 Z"/>
    
    <!-- 第二行 -->
    <path d="M24 90 L40 80 L56 90 L40 100 Z"/>
    <path d="M56 90 L72 80 L88 90 L72 100 Z"/>
    <path d="M88 90 L104 80 L120 90 L104 100 Z"/>
    <path d="M120 90 L136 80 L152 90 L136 100 Z"/>
    <path d="M152 90 L168 80 L184 90 L168 100 Z"/>
    
    <!-- 第三行 -->
    <path d="M40 110 L56 100 L72 110 L56 120 Z"/>
    <path d="M72 110 L88 100 L104 110 L88 120 Z"/>
    <path d="M104 110 L120 100 L136 110 L120 120 Z"/>
    <path d="M136 110 L152 100 L168 110 L152 120 Z"/>
    
    <!-- 第四行 -->
    <path d="M24 130 L40 120 L56 130 L40 140 Z"/>
    <path d="M56 130 L72 120 L88 130 L72 140 Z"/>
    <path d="M88 130 L104 120 L120 130 L104 140 Z"/>
    <path d="M120 130 L136 120 L152 130 L136 140 Z"/>
    <path d="M152 130 L168 120 L184 130 L168 140 Z"/>
    
    <!-- 第五行 -->
    <path d="M40 150 L56 140 L72 150 L56 160 Z"/>
    <path d="M72 150 L88 140 L104 150 L88 160 Z"/>
    <path d="M104 150 L120 140 L136 150 L120 160 Z"/>
    <path d="M136 150 L152 140 L168 150 L152 160 Z"/>
    
    <!-- 第六行 -->
    <path d="M56 170 L72 160 L88 170 L72 180 Z"/>
    <path d="M88 170 L104 160 L120 170 L104 180 Z"/>
    <path d="M104 170 L120 160 L136 170 L120 180 Z"/>
  </g>
  
  <!-- 菠萝叶冠 -->
  <g fill="url(#leafGradient)">
    <!-- 中心叶片 -->
    <path d="M96 8 L92 50 L100 50 Z"/>
    
    <!-- 左侧叶片 -->
    <path d="M80 12 L76 48 L84 48 Z"/>
    <path d="M64 18 L60 52 L68 52 Z"/>
    <path d="M48 25 L44 56 L52 56 Z"/>
    <path d="M32 35 L28 60 L36 60 Z"/>
    
    <!-- 右侧叶片 -->
    <path d="M112 12 L108 48 L116 48 Z"/>
    <path d="M128 18 L124 52 L132 52 Z"/>
    <path d="M144 25 L140 56 L148 56 Z"/>
    <path d="M160 35 L156 60 L164 60 Z"/>
    
    <!-- 额外叶片 -->
    <path d="M72 10 L68 46 L76 46 Z"/>
    <path d="M120 10 L116 46 L124 46 Z"/>
    <path d="M56 15 L52 50 L60 50 Z"/>
    <path d="M136 15 L132 50 L140 50 Z"/>
  </g>
  
  <!-- 主高光 -->
  <ellipse cx="70" cy="100" rx="24" ry="30" fill="url(#pineappleHighlight)"/>
  
  <!-- 次要高光 -->
  <ellipse cx="120" cy="130" rx="12" ry="15" fill="url(#pineappleHighlight)" opacity="0.5"/>
  
  <!-- 表面光泽 -->
  <ellipse cx="96" cy="120" rx="80" ry="70" fill="none" stroke="#FFFFFF" stroke-width="1" opacity="0.2"/>
</svg>