<svg width="192" height="192" viewBox="0 0 192 192" xmlns="http://www.w3.org/2000/svg">
  <defs>
    <radialGradient id="pineappleGrad" cx="0.35" cy="0.4" r="0.8">
      <stop offset="0%" stop-color="#FFF176"/>
      <stop offset="30%" stop-color="#FFB74D"/>
      <stop offset="70%" stop-color="#FF9800"/>
      <stop offset="100%" stop-color="#F57C00"/>
    </radialGradient>
    <radialGradient id="highlight" cx="0.25" cy="0.3" r="0.3">
      <stop offset="0%" stop-color="#FFFFFF" stop-opacity="0.6"/>
      <stop offset="100%" stop-color="#FFFFFF" stop-opacity="0"/>
    </radialGradient>
  </defs>
  
  <!-- 菠萝主体 - 椭圆形，填满画布 -->
  <ellipse cx="96" cy="120" rx="72" ry="64" fill="url(#pineappleGrad)" stroke="#F57C00" stroke-width="2"/>
  
  <!-- 菠萝叶冠 -->
  <g fill="#4CAF50" stroke="#2E7D32" stroke-width="1">
    <path d="M96 8 L88 56 L80 12 L72 60 L64 16 L56 64 L68 68 L76 64 L84 68 L92 64 L100 68 L108 64 L116 68 L124 64 L136 16 L128 60 L120 12 L112 56 L104 8"/>
    <path d="M96 8 L100 52 L108 12 L116 56 L124 16 L132 60 L140 20 L148 64 L136 68 L128 64 L120 68 L112 64 L104 68 L96 64"/>
  </g>
  
  <!-- 菠萝表面菱形纹理 -->
  <g stroke="#F57C00" stroke-width="2" fill="none">
    <!-- 横向线条 -->
    <path d="M32 88 L160 88"/>
    <path d="M28 104 L164 104"/>
    <path d="M32 120 L160 120"/>
    <path d="M28 136 L164 136"/>
    <path d="M32 152 L160 152"/>
    <path d="M36 168 L156 168"/>
    
    <!-- 斜向线条 -->
    <path d="M48 72 L144 168"/>
    <path d="M64 72 L160 168"/>
    <path d="M80 72 L176 168"/>
    <path d="M96 72 L192 168"/>
    <path d="M112 72 L208 168"/>
    <path d="M128 72 L224 168"/>
    <path d="M144 72 L240 168"/>
    
    <!-- 反向斜线 -->
    <path d="M144 72 L48 168"/>
    <path d="M128 72 L32 168"/>
    <path d="M112 72 L16 168"/>
    <path d="M96 72 L0 168"/>
    <path d="M80 72 L-16 168"/>
    <path d="M64 72 L-32 168"/>
    <path d="M48 72 L-48 168"/>
  </g>
  
  <!-- 高光效果 -->
  <ellipse cx="72" cy="100" rx="20" ry="24" fill="url(#highlight)"/>
  
  <!-- 表面光泽 -->
  <ellipse cx="96" cy="120" rx="72" ry="64" fill="#FFF8E1" opacity="0.1"/>
</svg>