<svg width="36" height="36" viewBox="0 0 36 36" xmlns="http://www.w3.org/2000/svg">
  <defs>
    <radialGradient id="strawberryGradient" cx="0.3" cy="0.4" r="0.8">
      <stop offset="0%" stop-color="#FF8A80"/>
      <stop offset="60%" stop-color="#FF5722"/>
      <stop offset="100%" stop-color="#E64A19"/>
    </radialGradient>
    <radialGradient id="strawberryHighlight" cx="0.25" cy="0.3" r="0.4">
      <stop offset="0%" stop-color="#FFFFFF" stop-opacity="0.7"/>
      <stop offset="100%" stop-color="#FFFFFF" stop-opacity="0"/>
    </radialGradient>
    <filter id="strawberryShadow">
      <feDropShadow dx="1" dy="2" stdDeviation="1" flood-color="#000000" flood-opacity="0.2"/>
    </filter>
  </defs>
  
  <!-- 草莓主体 -->
  <path d="M18 8 Q25 10 28 18 Q28 25 25 30 Q18 34 18 34 Q18 34 11 30 Q8 25 8 18 Q11 10 18 8 Z" 
        fill="url(#strawberryGradient)" 
        stroke="#E64A19" 
        stroke-width="0.5"
        filter="url(#strawberryShadow)"/>
  
  <!-- 高光效果 -->
  <ellipse cx="15" cy="16" rx="3.5" ry="5" fill="url(#strawberryHighlight)"/>
  
  <!-- 草莓籽 - 更多更真实的分布 -->
  <ellipse cx="13" cy="16" rx="0.7" ry="0.4" fill="#2E7D32" transform="rotate(20 13 16)"/>
  <ellipse cx="23" cy="18" rx="0.7" ry="0.4" fill="#2E7D32" transform="rotate(-15 23 18)"/>
  <ellipse cx="16" cy="22" rx="0.7" ry="0.4" fill="#2E7D32" transform="rotate(30 16 22)"/>
  <ellipse cx="20" cy="24" rx="0.7" ry="0.4" fill="#2E7D32" transform="rotate(-20 20 24)"/>
  <ellipse cx="18" cy="28" rx="0.7" ry="0.4" fill="#2E7D32"/>
  <ellipse cx="15" cy="26" rx="0.6" ry="0.3" fill="#2E7D32" transform="rotate(45 15 26)"/>
  <ellipse cx="21" cy="27" rx="0.6" ry="0.3" fill="#2E7D32" transform="rotate(-30 21 27)"/>
  <ellipse cx="12" cy="20" rx="0.6" ry="0.3" fill="#2E7D32" transform="rotate(60 12 20)"/>
  <ellipse cx="24" cy="22" rx="0.6" ry="0.3" fill="#2E7D32" transform="rotate(-45 24 22)"/>
  
  <!-- 草莓叶子 - 更立体 -->
  <g filter="url(#strawberryShadow)">
    <path d="M12 8 Q15 4 18 8 Q21 4 24 8" fill="#4CAF50"/>
    <path d="M14 7 Q16 5 18 7 Q20 5 22 7" fill="#66BB6A"/>
    <path d="M15 6 L18 3 L21 6" stroke="#2E7D32" stroke-width="0.8" fill="none"/>
  </g>
  
  <!-- 叶子纹理 -->
  <path d="M15 6 Q17 5 18 6" stroke="#388E3C" stroke-width="0.3" fill="none"/>
  <path d="M18 6 Q20 5 21 6" stroke="#388E3C" stroke-width="0.3" fill="none"/>
</svg>