<svg width="64" height="64" viewBox="0 0 64 64" xmlns="http://www.w3.org/2000/svg">
  <defs>
    <!-- 草莓主体渐变 -->
    <radialGradient id="strawberryGradient" cx="0.3" cy="0.4" r="0.8">
      <stop offset="0%" stop-color="#FF8A80"/>
      <stop offset="30%" stop-color="#F44336"/>
      <stop offset="60%" stop-color="#D32F2F"/>
      <stop offset="100%" stop-color="#B71C1C"/>
    </radialGradient>
    
    <!-- 叶冠渐变 -->
    <linearGradient id="leafGradient" x1="0%" y1="0%" x2="0%" y2="100%">
      <stop offset="0%" stop-color="#66BB6A"/>
      <stop offset="100%" stop-color="#388E3C"/>
    </linearGradient>
    
    <!-- 高光渐变 -->
    <radialGradient id="strawberryHighlight" cx="0.35" cy="0.3" r="0.4">
      <stop offset="0%" stop-color="#FFFFFF" stop-opacity="0.8"/>
      <stop offset="100%" stop-color="#FFFFFF" stop-opacity="0"/>
    </radialGradient>
  </defs>
  
  <!-- 草莓主体 - 心形，填满画布 -->
  <path d="M32 60 
           C20 50, 6 38, 6 26 
           C6 18, 12 12, 20 12 
           C26 12, 30 16, 32 20 
           C34 16, 38 12, 44 12 
           C52 12, 58 18, 58 26 
           C58 38, 44 50, 32 60 Z" 
        fill="url(#strawberryGradient)"/>
  
  <!-- 绿色叶冠 -->
  <path d="M32 4 L28 16 L22 10 L18 18 L14 14 L18 22 L22 18 L26 24 L32 20 L38 24 L42 18 L46 22 L50 14 L46 18 L40 10 L36 16 Z" 
        fill="url(#leafGradient)"/>
  
  <!-- 主高光 -->
  <ellipse cx="24" cy="24" rx="8" ry="6" fill="url(#strawberryHighlight)"/>
  
  <!-- 次要高光 -->
  <ellipse cx="40" cy="30" rx="4" ry="3" fill="url(#strawberryHighlight)" opacity="0.6"/>
  
  <!-- 表面籽点 -->
  <g fill="#FFD54F" opacity="0.8">
    <ellipse cx="20" cy="30" rx="1.5" ry="1"/>
    <ellipse cx="28" cy="35" rx="1.5" ry="1"/>
    <ellipse cx="36" cy="32" rx="1.5" ry="1"/>
    <ellipse cx="24" cy="42" rx="1.5" ry="1"/>
    <ellipse cx="32" cy="45" rx="1.5" ry="1"/>
    <ellipse cx="40" cy="40" rx="1.5" ry="1"/>
    <ellipse cx="18" cy="38" rx="1.5" ry="1"/>
    <ellipse cx="44" cy="35" rx="1.5" ry="1"/>
    <ellipse cx="30" cy="28" rx="1.5" ry="1"/>
    <ellipse cx="38" cy="45" rx="1.5" ry="1"/>
  </g>
</svg>