<svg width="128" height="128" viewBox="0 0 128 128" xmlns="http://www.w3.org/2000/svg">
  <defs>
    <radialGradient id="strawberryGrad" cx="0.35" cy="0.4" r="0.8">
      <stop offset="0%" stop-color="#FF6B6B"/>
      <stop offset="40%" stop-color="#E53E3E"/>
      <stop offset="80%" stop-color="#C53030"/>
      <stop offset="100%" stop-color="#9B2C2C"/>
    </radialGradient>
    <linearGradient id="leafGrad" x1="0" y1="0" x2="1" y2="1">
      <stop offset="0%" stop-color="#68D391"/>
      <stop offset="100%" stop-color="#38A169"/>
    </linearGradient>
    <radialGradient id="highlight" cx="0.3" cy="0.3" r="0.4">
      <stop offset="0%" stop-color="#FFFFFF" stop-opacity="0.6"/>
      <stop offset="100%" stop-color="#FFFFFF" stop-opacity="0"/>
    </radialGradient>
  </defs>
  
  <!-- 草莓主体 - 心形 -->
  <path d="M64 20 C44 12 20 24 16 48 C12 72 28 96 52 112 C58 116 64 120 64 120 C64 120 70 116 76 112 C100 96 116 72 112 48 C108 24 84 12 64 20 Z" 
        fill="url(#strawberryGrad)" stroke="#9B2C2C" stroke-width="1"/>
  
  <!-- 草莓叶萼 -->
  <g fill="url(#leafGrad)" stroke="#38A169" stroke-width="0.5">
    <path d="M64 20 L58 8 L52 16 L46 4 L40 12 L34 0 L42 24 L50 16 L58 24 L66 16 L74 24 L82 16 L90 24 L94 0 L88 12 L82 4 L76 16 L70 8 Z"/>
  </g>
  
  <!-- 高光效果 -->
  <ellipse cx="48" cy="52" rx="14" ry="18" fill="url(#highlight)"/>
  
  <!-- 草莓籽 -->
  <g fill="#FFD700" opacity="0.8">
    <ellipse cx="44" cy="56" rx="2" ry="3" transform="rotate(-15 44 56)"/>
    <ellipse cx="60" cy="48" rx="2" ry="3" transform="rotate(10 60 48)"/>
    <ellipse cx="76" cy="56" rx="2" ry="3" transform="rotate(-10 76 56)"/>
    <ellipse cx="52" cy="72" rx="2" ry="3" transform="rotate(20 52 72)"/>
    <ellipse cx="68" cy="68" rx="2" ry="3" transform="rotate(-20 68 68)"/>
    <ellipse cx="84" cy="72" rx="2" ry="3" transform="rotate(15 84 72)"/>
    <ellipse cx="40" cy="80" rx="2" ry="3" transform="rotate(-25 40 80)"/>
    <ellipse cx="56" cy="88" rx="2" ry="3" transform="rotate(25 56 88)"/>
    <ellipse cx="72" cy="84" rx="2" ry="3" transform="rotate(-15 72 84)"/>
    <ellipse cx="64" cy="96" rx="2" ry="3" transform="rotate(0 64 96)"/>
  </g>
</svg>