<svg width="52" height="52" viewBox="0 0 52 52" xmlns="http://www.w3.org/2000/svg">
  <defs>
    <!-- 草莓主体渐变 -->
    <radialGradient id="strawberryGradient" cx="0.3" cy="0.2" r="0.9">
      <stop offset="0%" stop-color="#FFAB91"/>
      <stop offset="30%" stop-color="#FF7043"/>
      <stop offset="70%" stop-color="#F4511E"/>
      <stop offset="100%" stop-color="#D84315"/>
    </radialGradient>
    
    <!-- 高光渐变 -->
    <radialGradient id="strawberryHighlight" cx="0.25" cy="0.15" r="0.4">
      <stop offset="0%" stop-color="#FFFFFF" stop-opacity="0.8"/>
      <stop offset="50%" stop-color="#FFFFFF" stop-opacity="0.3"/>
      <stop offset="100%" stop-color="#FFFFFF" stop-opacity="0"/>
    </radialGradient>
    
    <!-- 阴影渐变 -->
    <radialGradient id="strawberryShadow" cx="0.8" cy="0.9" r="0.5">
      <stop offset="0%" stop-color="#BF360C" stop-opacity="0.7"/>
      <stop offset="100%" stop-color="#BF360C" stop-opacity="0"/>
    </radialGradient>
    
    <!-- 叶子渐变 -->
    <linearGradient id="leafGradient" x1="0" y1="0" x2="1" y2="1">
      <stop offset="0%" stop-color="#A5D6A7"/>
      <stop offset="50%" stop-color="#66BB6A"/>
      <stop offset="100%" stop-color="#2E7D32"/>
    </linearGradient>
    
    <!-- 阴影滤镜 -->
    <filter id="dropShadow" x="-50%" y="-50%" width="200%" height="200%">
      <feDropShadow dx="2" dy="3" stdDeviation="2" flood-color="#000000" flood-opacity="0.3"/>
    </filter>
  </defs>
  
  <!-- 草莓主体 -->
  <path d="M26 15 Q35 18 38 28 Q38 38 32 44 Q26 48 26 48 Q26 48 20 44 Q14 38 14 28 Q17 18 26 15 Z" 
        fill="url(#strawberryGradient)" 
        stroke="#BF360C" 
        stroke-width="0.8"
        filter="url(#dropShadow)"/>
  
  <!-- 草莓阴影部分 -->
  <ellipse cx="32" cy="38" rx="6" ry="8" fill="url(#strawberryShadow)"/>
  
  <!-- 主高光 -->
  <ellipse cx="21" cy="22" rx="4" ry="6" fill="url(#strawberryHighlight)"/>
  
  <!-- 次高光 -->
  <ellipse cx="18" cy="28" rx="2" ry="3" fill="#FFFFFF" opacity="0.5"/>
  
  <!-- 草莓叶子 -->
  <g filter="url(#dropShadow)">
    <!-- 中央叶子 -->
    <path d="M26 15 Q26 8 26 4 Q28 2 30 4 Q28 8 26 15" 
          fill="url(#leafGradient)" 
          stroke="#1B5E20" 
          stroke-width="0.5"/>
    
    <!-- 左叶子 -->
    <path d="M22 12 Q20 6 18 4 Q16 2 14 4 Q18 8 22 12" 
          fill="url(#leafGradient)" 
          stroke="#1B5E20" 
          stroke-width="0.5"/>
    
    <!-- 右叶子 -->
    <path d="M30 12 Q32 6 34 4 Q36 2 38 4 Q34 8 30 12" 
          fill="url(#leafGradient)" 
          stroke="#1B5E20" 
          stroke-width="0.5"/>
    
    <!-- 左侧叶子 -->
    <path d="M18 14 Q14 8 10 8 Q8 6 6 8 Q12 12 18 14" 
          fill="url(#leafGradient)" 
          stroke="#1B5E20" 
          stroke-width="0.5"/>
    
    <!-- 右侧叶子 -->
    <path d="M34 14 Q38 8 42 8 Q44 6 46 8 Q40 12 34 14" 
          fill="url(#leafGradient)" 
          stroke="#1B5E20" 
          stroke-width="0.5"/>
  </g>
  
  <!-- 草莓种子 -->
  <g fill="#FFD54F" opacity="0.9">
    <ellipse cx="20" cy="25" rx="1.5" ry="1" transform="rotate(15 20 25)"/>
    <ellipse cx="32" cy="27" rx="1.5" ry="1" transform="rotate(-20 32 27)"/>
    <ellipse cx="24" cy="32" rx="1.5" ry="1" transform="rotate(10 24 32)"/>
    <ellipse cx="28" cy="35" rx="1.5" ry="1" transform="rotate(-15 28 35)"/>
    <ellipse cx="18" cy="35" rx="1.5" ry="1" transform="rotate(25 18 35)"/>
    <ellipse cx="30" cy="40" rx="1.5" ry="1" transform="rotate(5 30 40)"/>
    <ellipse cx="22" cy="40" rx="1.5" ry="1" transform="rotate(-10 22 40)"/>
  </g>
  
  <!-- 草莓表面光泽 -->
  <path d="M16 22 Q26 18 36 24" 
        stroke="#FFCDD2" 
        stroke-width="1" 
        fill="none" 
        opacity="0.4"/>
</svg>