<svg width="128" height="128" viewBox="0 0 128 128" xmlns="http://www.w3.org/2000/svg">
  <defs>
    <radialGradient id="tomatoGrad" cx="0.35" cy="0.3" r="0.8">
      <stop offset="0%" stop-color="#FF6B6B"/>
      <stop offset="40%" stop-color="#E53E3E"/>
      <stop offset="80%" stop-color="#C53030"/>
      <stop offset="100%" stop-color="#9B2C2C"/>
    </radialGradient>
    <linearGradient id="leafGrad" x1="0" y1="0" x2="1" y2="1">
      <stop offset="0%" stop-color="#68D391"/>
      <stop offset="100%" stop-color="#38A169"/>
    </linearGradient>
    <radialGradient id="highlight" cx="0.3" cy="0.25" r="0.4">
      <stop offset="0%" stop-color="#FFFFFF" stop-opacity="0.8"/>
      <stop offset="100%" stop-color="#FFFFFF" stop-opacity="0"/>
    </radialGradient>
  </defs>
  
  <!-- 番茄主体 -->
  <circle cx="64" cy="68" r="52" fill="url(#tomatoGrad)" stroke="#9B2C2C" stroke-width="1"/>
  
  <!-- 番茄顶部花萼 -->
  <g fill="url(#leafGrad)" stroke="#38A169" stroke-width="0.5">
    <path d="M64 16 L58 28 L52 20 L46 32 L40 24 L34 36 L42 44 L50 36 L58 44 L66 36 L74 44 L82 36 L90 44 L94 36 L88 24 L82 32 L76 20 L70 28 Z"/>
  </g>
  
  <!-- 番茄茎 -->
  <rect x="60" y="8" width="8" height="12" fill="#8B4513" rx="4"/>
  
  <!-- 高光效果 -->
  <ellipse cx="48" cy="52" rx="16" ry="20" fill="url(#highlight)"/>
  
  <!-- 番茄表面光泽 -->
  <ellipse cx="44" cy="76" rx="6" ry="8" fill="#FFFFFF" opacity="0.3"/>
  
  <!-- 番茄表面纹理 -->
  <g stroke="#9B2C2C" stroke-width="0.5" opacity="0.3" fill="none">
    <path d="M64 20 C60 40 60 60 64 80 C64 90 64 100 64 110"/>
    <path d="M44 32 C48 52 52 72 56 92"/>
    <path d="M84 32 C80 52 76 72 72 92"/>
  </g>
</svg>