<svg width="56" height="56" viewBox="0 0 56 56" xmlns="http://www.w3.org/2000/svg">
  <defs>
    <radialGradient id="tomatoGradient" cx="0.3" cy="0.3" r="0.8">
      <stop offset="0%" stop-color="#FF8A80"/>
      <stop offset="50%" stop-color="#F44336"/>
      <stop offset="100%" stop-color="#D32F2F"/>
    </radialGradient>
    <radialGradient id="tomatoHighlight" cx="0.25" cy="0.25" r="0.4">
      <stop offset="0%" stop-color="#FFFFFF" stop-opacity="0.7"/>
      <stop offset="100%" stop-color="#FFFFFF" stop-opacity="0"/>
    </radialGradient>
    <radialGradient id="stemGradient" cx="0.3" cy="0.3" r="0.8">
      <stop offset="0%" stop-color="#81C784"/>
      <stop offset="100%" stop-color="#4CAF50"/>
    </radialGradient>
    <filter id="tomatoShadow">
      <feDropShadow dx="1.5" dy="2.5" stdDeviation="2" flood-color="#000000" flood-opacity="0.25"/>
    </filter>
  </defs>
  
  <!-- 番茄主体 -->
  <path d="M28 8 
           C38 8 46 16 46 28
           C46 40 38 48 28 48
           C18 48 10 40 10 28
           C10 16 18 8 28 8 Z" 
        fill="url(#tomatoGradient)" 
        stroke="#D32F2F" 
        stroke-width="0.5"
        filter="url(#tomatoShadow)"/>
  
  <!-- 番茄表面凹槽纹理 -->
  <g stroke="#C62828" stroke-width="0.8" fill="none" opacity="0.4">
    <path d="M28 8 Q32 20 28 48"/>
    <path d="M28 8 Q24 20 28 48"/>
    <path d="M28 8 Q36 18 40 28 Q36 38 28 48"/>
    <path d="M28 8 Q20 18 16 28 Q20 38 28 48"/>
    <path d="M28 8 Q38 16 44 28 Q38 40 28 48"/>
    <path d="M28 8 Q18 16 12 28 Q18 40 28 48"/>
  </g>
  
  <!-- 高光效果 -->
  <ellipse cx="22" cy="20" rx="7" ry="8" fill="url(#tomatoHighlight)"/>
  
  <!-- 番茄顶部茎叶 -->
  <g fill="url(#stemGradient)" stroke="#388E3C" stroke-width="0.3">
    <!-- 主茎 -->
    <ellipse cx="28" cy="8" rx="3" ry="2"/>
    
    <!-- 叶子 -->
    <path d="M22 8 Q18 4 16 6 Q20 8 22 10 Z" opacity="0.9"/>
    <path d="M34 8 Q38 4 40 6 Q36 8 34 10 Z" opacity="0.9"/>
    <path d="M25 6 Q22 2 20 4 Q24 6 25 8 Z" opacity="0.8"/>
    <path d="M31 6 Q34 2 36 4 Q32 6 31 8 Z" opacity="0.8"/>
    <path d="M28 5 Q26 1 24 3 Q28 5 28 7 Z" opacity="0.7"/>
    <path d="M28 5 Q30 1 32 3 Q28 5 28 7 Z" opacity="0.7"/>
  </g>
  
  <!-- 叶子纹理 -->
  <g stroke="#2E7D32" stroke-width="0.2" fill="none" opacity="0.6">
    <path d="M18 5 Q20 6 22 7"/>
    <path d="M38 5 Q36 6 34 7"/>
    <path d="M22 3 Q24 4 25 5"/>
    <path d="M34 3 Q32 4 31 5"/>
  </g>
  
  <!-- 番茄表面光泽 -->
  <path d="M15 22 Q28 18 41 24" stroke="#FF5722" stroke-width="1.2" fill="none" opacity="0.3"/>
  <path d="M18 32 Q28 28 38 34" stroke="#FF5722" stroke-width="0.8" fill="none" opacity="0.2"/>
  
  <!-- 番茄底部小凹陷 -->
  <ellipse cx="28" cy="46" rx="2" ry="1" fill="#B71C1C" opacity="0.4"/>
</svg>