<svg width="256" height="256" viewBox="0 0 256 256" xmlns="http://www.w3.org/2000/svg">
  <defs>
    <radialGradient id="watermelonGrad" cx="0.35" cy="0.3" r="0.8">
      <stop offset="0%" stop-color="#A5D6A7"/>
      <stop offset="30%" stop-color="#4CAF50"/>
      <stop offset="70%" stop-color="#2E7D32"/>
      <stop offset="100%" stop-color="#1B5E20"/>
    </radialGradient>
    <radialGradient id="highlight" cx="0.25" cy="0.25" r="0.3">
      <stop offset="0%" stop-color="#FFFFFF" stop-opacity="0.5"/>
      <stop offset="100%" stop-color="#FFFFFF" stop-opacity="0"/>
    </radialGradient>
  </defs>
  
  <!-- 西瓜主体 - 圆形，填满画布 -->
  <circle cx="128" cy="128" r="124" fill="url(#watermelonGrad)" stroke="#1B5E20" stroke-width="2"/>
  
  <!-- 西瓜条纹 -->
  <g stroke="#1B5E20" stroke-width="8" fill="none" opacity="0.6">
    <path d="M128 4 Q180 56 228 128 Q180 200 128 252 Q76 200 28 128 Q76 56 128 4"/>
    <path d="M128 20 Q168 64 204 128 Q168 192 128 236 Q88 192 52 128 Q88 64 128 20"/>
    <path d="M128 36 Q156 72 180 128 Q156 184 128 220 Q100 184 76 128 Q100 72 128 36"/>
    <path d="M128 52 Q144 80 156 128 Q144 176 128 204 Q112 176 100 128 Q112 80 128 52"/>
  </g>
  
  <!-- 高光效果 -->
  <ellipse cx="96" cy="96" rx="32" ry="40" fill="url(#highlight)"/>
  
  <!-- 表面光泽 -->
  <circle cx="128" cy="128" r="124" fill="#E8F5E8" opacity="0.1"/>
</svg>