<svg width="90" height="90" viewBox="0 0 90 90" xmlns="http://www.w3.org/2000/svg">
  <defs>
    <!-- 西瓜主体渐变 -->
    <radialGradient id="watermelonGradient" cx="0.25" cy="0.2" r="0.9">
      <stop offset="0%" stop-color="#A5D6A7"/>
      <stop offset="20%" stop-color="#81C784"/>
      <stop offset="50%" stop-color="#4CAF50"/>
      <stop offset="80%" stop-color="#2E7D32"/>
      <stop offset="100%" stop-color="#1B5E20"/>
    </radialGradient>
    
    <!-- 高光渐变 -->
    <radialGradient id="watermelonHighlight" cx="0.2" cy="0.15" r="0.4">
      <stop offset="0%" stop-color="#FFFFFF" stop-opacity="0.8"/>
      <stop offset="50%" stop-color="#FFFFFF" stop-opacity="0.3"/>
      <stop offset="100%" stop-color="#FFFFFF" stop-opacity="0"/>
    </radialGradient>
    
    <!-- 阴影渐变 -->
    <radialGradient id="watermelonShadow" cx="0.8" cy="0.85" r="0.6">
      <stop offset="0%" stop-color="#0D5016" stop-opacity="0.8"/>
      <stop offset="100%" stop-color="#0D5016" stop-opacity="0"/>
    </radialGradient>
    
    <!-- 条纹渐变 -->
    <linearGradient id="stripeGradient" x1="0" y1="0" x2="1" y2="0">
      <stop offset="0%" stop-color="#1B5E20" stop-opacity="0.8"/>
      <stop offset="50%" stop-color="#0D5016" stop-opacity="0.9"/>
      <stop offset="100%" stop-color="#1B5E20" stop-opacity="0.8"/>
    </linearGradient>
    
    <!-- 阴影滤镜 -->
    <filter id="dropShadow" x="-50%" y="-50%" width="200%" height="200%">
      <feDropShadow dx="3" dy="4" stdDeviation="3" flood-color="#000000" flood-opacity="0.4"/>
    </filter>
    
    <!-- 内阴影滤镜 -->
    <filter id="innerShadow" x="-50%" y="-50%" width="200%" height="200%">
      <feOffset dx="0" dy="0"/>
      <feGaussianBlur stdDeviation="2"/>
      <feComposite operator="over"/>
    </filter>
  </defs>
  
  <!-- 西瓜主体 -->
  <circle cx="45" cy="45" r="40" 
          fill="url(#watermelonGradient)" 
          stroke="#0D5016" 
          stroke-width="1.5"
          filter="url(#dropShadow)"/>
  
  <!-- 西瓜阴影部分 -->
  <ellipse cx="58" cy="60" rx="18" ry="15" fill="url(#watermelonShadow)"/>
  
  <!-- 主要条纹 -->
  <g opacity="0.7">
    <path d="M15 25 Q45 20 75 28" 
          stroke="url(#stripeGradient)" 
          stroke-width="4" 
          fill="none"/>
    <path d="M12 35 Q45 30 78 38" 
          stroke="url(#stripeGradient)" 
          stroke-width="5" 
          fill="none"/>
    <path d="M10 45 Q45 40 80 48" 
          stroke="url(#stripeGradient)" 
          stroke-width="6" 
          fill="none"/>
    <path d="M12 55 Q45 50 78 58" 
          stroke="url(#stripeGradient)" 
          stroke-width="5" 
          fill="none"/>
    <path d="M15 65 Q45 60 75 68" 
          stroke="url(#stripeGradient)" 
          stroke-width="4" 
          fill="none"/>
  </g>
  
  <!-- 次要条纹 -->
  <g opacity="0.5">
    <path d="M18 30 Q45 25 72 33" 
          stroke="#0D5016" 
          stroke-width="2.5" 
          fill="none"/>
    <path d="M16 40 Q45 35 74 43" 
          stroke="#0D5016" 
          stroke-width="3" 
          fill="none"/>
    <path d="M14 50 Q45 45 76 53" 
          stroke="#0D5016" 
          stroke-width="3" 
          fill="none"/>
    <path d="M18 60 Q45 55 72 63" 
          stroke="#0D5016" 
          stroke-width="2.5" 
          fill="none"/>
  </g>
  
  <!-- 主高光 -->
  <ellipse cx="32" cy="28" rx="8" ry="12" fill="url(#watermelonHighlight)"/>
  
  <!-- 次高光 -->
  <ellipse cx="28" cy="35" rx="3" ry="5" fill="#FFFFFF" opacity="0.4"/>
  
  <!-- 西瓜柄部 -->
  <g filter="url(#dropShadow)">
    <path d="M45 5 Q45 2 45 0" 
          stroke="#5D4037" 
          stroke-width="4" 
          fill="none" 
          stroke-linecap="round"/>
    
    <!-- 柄部细节 -->
    <circle cx="45" cy="5" r="2" fill="#6D4C41"/>
  </g>
  
  <!-- 表面光泽线 -->
  <g opacity="0.3">
    <path d="M20 30 Q45 25 70 32" 
          stroke="#C8E6C9" 
          stroke-width="1.5" 
          fill="none"/>
    <path d="M25 50 Q45 45 65 52" 
          stroke="#C8E6C9" 
          stroke-width="1.2" 
          fill="none"/>
  </g>
  
  <!-- 西瓜表面纹理细节 -->
  <g opacity="0.2">
    <circle cx="35" cy="40" r="1" fill="#1B5E20"/>
    <circle cx="55" cy="42" r="1" fill="#1B5E20"/>
    <circle cx="40" cy="55" r="1" fill="#1B5E20"/>
    <circle cx="50" cy="58" r="1" fill="#1B5E20"/>
  </g>
</svg>