<svg width="76" height="76" viewBox="0 0 76 76" xmlns="http://www.w3.org/2000/svg">
  <defs>
    <radialGradient id="watermelonGradient" cx="0.3" cy="0.3" r="0.8">
      <stop offset="0%" stop-color="#81C784"/>
      <stop offset="40%" stop-color="#4CAF50"/>
      <stop offset="80%" stop-color="#2E7D32"/>
      <stop offset="100%" stop-color="#1B5E20"/>
    </radialGradient>
    <radialGradient id="watermelonHighlight" cx="0.25" cy="0.25" r="0.4">
      <stop offset="0%" stop-color="#FFFFFF" stop-opacity="0.6"/>
      <stop offset="100%" stop-color="#FFFFFF" stop-opacity="0"/>
    </radialGradient>
    <filter id="watermelonShadow">
      <feDropShadow dx="2" dy="3" stdDeviation="2" flood-color="#000000" flood-opacity="0.25"/>
    </filter>
  </defs>
  
  <!-- 西瓜主体 -->
  <circle cx="38" cy="38" r="34" 
          fill="url(#watermelonGradient)" 
          stroke="#1B5E20" 
          stroke-width="1"
          filter="url(#watermelonShadow)"/>
  
  <!-- 高光效果 -->
  <ellipse cx="30" cy="30" rx="8" ry="10" fill="url(#watermelonHighlight)"/>
  
  <!-- 西瓜条纹 - 深绿色条纹 -->
  <path d="M15 20 Q38 18 61 22" stroke="#1B5E20" stroke-width="3" fill="none" opacity="0.6"/>
  <path d="M12 30 Q38 28 64 32" stroke="#1B5E20" stroke-width="3.5" fill="none" opacity="0.6"/>
  <path d="M10 40 Q38 38 66 42" stroke="#1B5E20" stroke-width="4" fill="none" opacity="0.6"/>
  <path d="M12 50 Q38 48 64 52" stroke="#1B5E20" stroke-width="3.5" fill="none" opacity="0.6"/>
  <path d="M15 60 Q38 58 61 62" stroke="#1B5E20" stroke-width="3" fill="none" opacity="0.6"/>
  
  <!-- 更细的条纹 -->
  <path d="M18 25 Q38 23 58 27" stroke="#2E7D32" stroke-width="2" fill="none" opacity="0.4"/>
  <path d="M16 35 Q38 33 60 37" stroke="#2E7D32" stroke-width="2.5" fill="none" opacity="0.4"/>
  <path d="M14 45 Q38 43 62 47" stroke="#2E7D32" stroke-width="2.5" fill="none" opacity="0.4"/>
  <path d="M18 55 Q38 53 58 57" stroke="#2E7D32" stroke-width="2" fill="none" opacity="0.4"/>
  
  <!-- 西瓜表面光泽 -->
  <path d="M15 25 Q38 22 61 28" stroke="#A5D6A7" stroke-width="1.5" fill="none" opacity="0.3"/>
  <path d="M20 45 Q38 42 56 48" stroke="#A5D6A7" stroke-width="1.2" fill="none" opacity="0.3"/>
  
  <!-- 西瓜柄部 -->
  <g filter="url(#watermelonShadow)">
    <path d="M38 4 Q38 2 38 0" 
          stroke="#5D4037" 
          stroke-width="3" 
          fill="none" 
          stroke-linecap="round"/>
    
    <!-- 西瓜藤蔓 -->
    <path d="M40 6 Q45 4 48 8 Q46 10 42 8" fill="#4CAF50"/>
    <path d="M36 6 Q31 4 28 8 Q30 10 34 8" fill="#66BB6A"/>
  </g>
  
  <!-- 藤蔓纹理 -->
  <path d="M42 7 Q44 6 46 8" stroke="#2E7D32" stroke-width="0.4" fill="none"/>
  <path d="M34 7 Q32 6 30 8" stroke="#388E3C" stroke-width="0.4" fill="none"/>
  
  <!-- 西瓜表面的细微纹理点 -->
  <circle cx="25" cy="25" r="0.8" fill="#388E3C" opacity="0.3"/>
  <circle cx="50" cy="30" r="1" fill="#388E3C" opacity="0.3"/>
  <circle cx="30" cy="50" r="0.9" fill="#388E3C" opacity="0.3"/>
  <circle cx="48" cy="48" r="0.7" fill="#388E3C" opacity="0.3"/>
  <circle cx="20" cy="45" r="0.8" fill="#388E3C" opacity="0.3"/>
  <circle cx="55" cy="40" r="0.6" fill="#388E3C" opacity="0.3"/>
</svg>